<?xml version="1.0" encoding="iso-8859-1"?>
<!-- Generator: Adobe Illustrator 19.0.0, SVG Export Plug-In . SVG Version: 6.00 Build 0)  -->
<svg version="1.1" id="Capa_1" xmlns="http://www.w3.org/2000/svg" xmlns:xlink="http://www.w3.org/1999/xlink" x="0px" y="0px"
	 viewBox="0 0 512.002 512.002" style="enable-background:new 0 0 512.002 512.002;" xml:space="preserve">
<g>
	<g>
		<path d="M418.133,51.201h-128v17.067H409.6v238.933h17.067V59.734C426.667,55.024,422.852,51.201,418.133,51.201z"/>
	</g>
</g>
<g>
	<g>
		<path d="M409.6,358.401v136.533H102.4V298.668H85.333v204.8c0,4.719,3.823,8.533,8.533,8.533h324.267
			c4.719,0,8.533-3.814,8.533-8.533V358.401H409.6z"/>
	</g>
</g>
<g>
	<g>
		<path d="M93.867,51.201c-4.71,0-8.533,3.823-8.533,8.533v110.933H102.4v-102.4h119.467V51.201H93.867z"/>
	</g>
</g>
<g>
	<g>
		<path d="M384,85.334h-51.2v17.067h42.667v238.933h17.067V93.868C392.533,89.157,388.719,85.334,384,85.334z"/>
	</g>
</g>
<g>
	<g>
		<path d="M375.467,392.534v68.267H136.533V264.534h-17.067v204.8c0,4.719,3.823,8.533,8.533,8.533h256
			c4.719,0,8.533-3.814,8.533-8.533v-76.8H375.467z"/>
	</g>
</g>
<g>
	<g>
		<path d="M128,85.334c-4.71,0-8.533,3.823-8.533,8.533v59.733h17.067v-51.2H179.2V85.334H128z"/>
	</g>
</g>
<g>
	<g>
		<path d="M357.862,125.006l-25.6-68.267c-1.254-3.328-4.437-5.538-7.996-5.538h-25.6v-8.533c0-23.526-19.14-42.667-42.667-42.667
			c-23.526,0-42.667,19.14-42.667,42.667v8.533h-25.6c-3.558,0-6.741,2.21-7.996,5.538l-25.6,68.267
			c-0.973,2.62-0.614,5.555,0.981,7.859c1.596,2.295,4.215,3.669,7.014,3.669h187.733c2.799,0,5.419-1.374,7.023-3.669
			C358.477,130.561,358.844,127.626,357.862,125.006z M174.447,119.468l19.2-51.2h28.22c4.71,0,8.533-3.823,8.533-8.533V42.668
			c0-14.114,11.486-25.6,25.6-25.6s25.6,11.486,25.6,25.6v17.067c0,4.71,3.814,8.533,8.533,8.533h28.22l19.2,51.2H174.447z"/>
	</g>
</g>
<g>
	<g>
		<rect x="196.267" y="221.868" width="145.067" height="17.067"/>
	</g>
</g>
<g>
	<g>
		<rect x="162.133" y="221.868" width="17.067" height="17.067"/>
	</g>
</g>
<g>
	<g>
		<rect x="196.267" y="273.068" width="102.4" height="17.067"/>
	</g>
</g>
<g>
	<g>
		<rect x="162.133" y="273.068" width="17.067" height="17.067"/>
	</g>
</g>
<g>
	<g>
		<rect x="196.267" y="324.268" width="145.067" height="17.067"/>
	</g>
</g>
<g>
	<g>
		<rect x="162.133" y="324.268" width="17.067" height="17.067"/>
	</g>
</g>
<g>
	<g>
		<rect x="196.267" y="375.468" width="102.4" height="17.067"/>
	</g>
</g>
<g>
	<g>
		<rect x="162.133" y="375.468" width="17.067" height="17.067"/>
	</g>
</g>
<g>
	<g>
		<rect x="213.333" y="170.668" width="85.333" height="17.067"/>
	</g>
</g>
<g>
	<g>
		<path d="M136.926,145.068c-13.508,0.051-26.24,5.325-35.866,14.874l-7.194,7.194l-7.211-7.219
			c-9.464-9.378-22.007-14.66-35.456-14.848c-28.237,0-51.2,22.963-51.2,51.2v7.262c0,14.353,6.144,28.092,16.836,37.666
			l71.339,63.829c1.621,1.459,3.661,2.176,5.692,2.176c2.185,0,4.369-0.845,6.033-2.5l72.986-72.977
			c9.378-9.463,14.66-22.007,14.848-35.336c0-0.034,0-0.077,0-0.12C187.733,168.313,164.992,145.349,136.926,145.068z
			 M160.794,219.675l-67.251,67.251L28.22,228.481c-7.083-6.349-11.153-15.445-11.153-24.96v-7.253
			c0-18.825,15.309-34.133,34.014-34.133c8.883,0.128,17.246,3.644,23.526,9.873l13.227,13.227c3.337,3.337,8.73,3.337,12.066,0
			l13.201-13.201c6.4-6.34,14.882-9.865,23.774-9.899c18.611,0.188,33.758,15.462,33.792,34.074
			C170.53,205.066,167.014,213.411,160.794,219.675z"/>
	</g>
</g>
<g>
	<g>
		<path d="M509.5,267.035l-25.6-25.6c-3.337-3.337-8.73-3.337-12.066,0l-153.6,153.6c-1.604,1.596-2.5,3.763-2.5,6.033v25.6
			c0,4.719,3.814,8.533,8.533,8.533h25.6c2.27,0,4.437-0.896,6.033-2.5l153.6-153.6C512.836,275.764,512.836,270.371,509.5,267.035z
			 M346.334,418.134H332.8v-13.534l145.067-145.067l13.534,13.534L346.334,418.134z"/>
	</g>
</g>
<g>
	<g>
		
			<rect x="456.535" y="267.775" transform="matrix(0.7071 -0.7071 0.7071 0.7071 -65.9313 412.5846)" width="17.067" height="36.207"/>
	</g>
</g>
<g>
</g>
<g>
</g>
<g>
</g>
<g>
</g>
<g>
</g>
<g>
</g>
<g>
</g>
<g>
</g>
<g>
</g>
<g>
</g>
<g>
</g>
<g>
</g>
<g>
</g>
<g>
</g>
<g>
</g>
</svg>
