<?xml version="1.0" encoding="iso-8859-1"?>
<!-- Generator: Adobe Illustrator 19.0.0, SVG Export Plug-In . SVG Version: 6.00 Build 0)  -->
<svg version="1.1" id="Capa_1" xmlns="http://www.w3.org/2000/svg" xmlns:xlink="http://www.w3.org/1999/xlink" x="0px" y="0px"
	 viewBox="0 0 512.002 512.002" style="enable-background:new 0 0 512.002 512.002;" xml:space="preserve">
<g>
	<g>
		<path d="M486.4,298.669v-102.4c0-4.71-3.814-8.533-8.533-8.533h-409.6c-23.526,0-42.667-19.14-42.667-42.667
			c0-4.71-3.823-8.533-8.533-8.533s-8.533,3.823-8.533,8.533v307.2c0,32.93,26.795,59.733,59.733,59.733h409.6
			c4.719,0,8.533-3.814,8.533-8.533v-102.4h-17.067v93.867H68.267c-23.526,0-42.667-19.14-42.667-42.667V186.839
			c10.846,11.076,25.967,17.963,42.667,17.963h401.067v93.867H486.4z"/>
	</g>
</g>
<g>
	<g>
		<path d="M68.267,187.735c-23.526,0-42.667-19.14-42.667-42.667c0-23.526,19.14-42.667,42.667-42.667H128V85.335H68.267
			c-32.939,0-59.733,26.795-59.733,59.733c0,32.939,26.795,59.733,59.733,59.733h409.6v-17.067H68.267z"/>
	</g>
</g>
<g>
	<g>
		<path d="M477.867,85.335h-59.733v17.067h51.2v51.2H486.4V93.869C486.4,89.158,482.586,85.335,477.867,85.335z"/>
	</g>
</g>
<g>
	<g>
		<path d="M494.933,290.135h-102.4c-32.93,0-59.733,26.803-59.733,59.733c0,32.93,26.803,59.733,59.733,59.733h102.4
			c4.719,0,8.533-3.814,8.533-8.533v-102.4C503.467,293.95,499.652,290.135,494.933,290.135z M486.4,392.535h-93.867
			c-23.526,0-42.667-19.14-42.667-42.667c0-23.526,19.14-42.667,42.667-42.667H486.4V392.535z"/>
	</g>
</g>
<g>
	<g>
		<path d="M392.533,324.269c-14.114,0-25.6,11.486-25.6,25.6s11.486,25.6,25.6,25.6c14.114,0,25.6-11.486,25.6-25.6
			S406.647,324.269,392.533,324.269z M392.533,358.402c-4.71,0-8.533-3.823-8.533-8.533s3.823-8.533,8.533-8.533
			c4.71,0,8.533,3.823,8.533,8.533S397.244,358.402,392.533,358.402z"/>
	</g>
</g>
<g>
	<g>
		<path d="M500.966,164.636L338.833,2.502c-3.337-3.337-8.73-3.337-12.066,0L139.034,190.236l12.066,12.066l181.7-181.7
			l150.067,150.067L463.3,190.236l12.066,12.066l25.6-25.6C504.303,173.365,504.303,167.972,500.966,164.636z"/>
	</g>
</g>
<g>
	<g>
		<path d="M381.483,45.178c-3.337-3.337-8.73-3.337-12.066,0c-9.779,9.779-22.784,15.164-36.617,15.164h-0.008
			c-13.833,0-26.846-5.393-36.625-15.172L284.1,57.235c13.005,13.005,30.302,20.173,48.7,20.173
			c18.389,0,35.686-7.159,48.683-20.164C384.819,53.907,384.819,48.514,381.483,45.178z"/>
	</g>
</g>
<g>
	<g>
		<path d="M458.308,134.035l-12.083-12.058c-20.386,20.429-25.907,51.729-13.722,77.892l15.462-7.194
			C438.801,172.973,442.957,149.412,458.308,134.035z"/>
	</g>
</g>
<g>
	<g>
		<rect x="435.2" y="221.869" width="42.667" height="17.067"/>
	</g>
</g>
<g>
	<g>
		<rect x="384" y="221.869" width="34.133" height="17.067"/>
	</g>
</g>
<g>
	<g>
		<rect x="332.8" y="221.869" width="34.133" height="17.067"/>
	</g>
</g>
<g>
	<g>
		<rect x="281.6" y="221.869" width="34.133" height="17.067"/>
	</g>
</g>
<g>
	<g>
		<rect x="230.4" y="221.869" width="34.133" height="17.067"/>
	</g>
</g>
<g>
	<g>
		<rect x="179.2" y="221.869" width="34.133" height="17.067"/>
	</g>
</g>
<g>
	<g>
		<rect x="128" y="221.869" width="34.133" height="17.067"/>
	</g>
</g>
<g>
	<g>
		<rect x="76.8" y="221.869" width="34.133" height="17.067"/>
	</g>
</g>
<g>
	<g>
		<path d="M33.22,213.822l-11.435-7.595l-9.438,14.216l11.426,7.595c10.692,7.108,23.125,10.88,35.951,10.897l0.017-17.067
			C50.287,221.852,41.114,219.07,33.22,213.822z"/>
	</g>
</g>
<g>
	<g>
		<rect x="435.2" y="460.802" width="42.667" height="17.067"/>
	</g>
</g>
<g>
	<g>
		<rect x="384" y="460.802" width="34.133" height="17.067"/>
	</g>
</g>
<g>
	<g>
		<rect x="332.8" y="460.802" width="34.133" height="17.067"/>
	</g>
</g>
<g>
	<g>
		<rect x="281.6" y="460.802" width="34.133" height="17.067"/>
	</g>
</g>
<g>
	<g>
		<rect x="230.4" y="460.802" width="34.133" height="17.067"/>
	</g>
</g>
<g>
	<g>
		<rect x="179.2" y="460.802" width="34.133" height="17.067"/>
	</g>
</g>
<g>
	<g>
		<rect x="128" y="460.802" width="34.133" height="17.067"/>
	</g>
</g>
<g>
	<g>
		<rect x="76.8" y="460.802" width="34.133" height="17.067"/>
	</g>
</g>
<g>
	<g>
		<path d="M33.229,452.755l-11.435-7.595l-9.438,14.216l11.418,7.586c10.675,7.117,23.108,10.888,35.951,10.906l0.017-17.067
			C50.278,460.785,41.105,458.012,33.229,452.755z"/>
	</g>
</g>
<g>
	<g>
		<rect x="76.8" y="119.469" width="17.067" height="17.067"/>
	</g>
</g>
<g>
	<g>
		<path d="M59.725,119.469c-12.834,0.017-25.267,3.789-35.942,10.897l-11.435,7.595l9.438,14.216l11.452-7.603
			c7.876-5.239,17.05-8.03,26.513-8.038L59.725,119.469z"/>
	</g>
</g>
<g>
	<g>
		<path d="M219.366,2.502c-3.336-3.337-8.73-3.337-12.066,0l-179.2,179.2l12.066,12.066L213.333,20.602l28.1,28.1L253.5,36.636
			L219.366,2.502z"/>
	</g>
</g>
<g>
	<g>
		<path d="M279.1,2.502c-3.337-3.337-8.73-3.337-12.066,0L79.3,190.236l12.066,12.066l181.7-181.7l28.1,28.1l12.066-12.066
			L279.1,2.502z"/>
	</g>
</g>
<g>
	<g>
		<path d="M327.927,152.356c-19.738-8.96-41.779-9.677-62.071-2.057c-20.292,7.629-36.403,22.707-45.355,42.445l15.539,7.049
			c14.601-32.171,52.659-46.481,84.838-31.898c14.148,6.417,25.472,17.741,31.881,31.889l15.548-7.049
			C360.183,174.824,345.847,160.488,327.927,152.356z"/>
	</g>
</g>
<g>
</g>
<g>
</g>
<g>
</g>
<g>
</g>
<g>
</g>
<g>
</g>
<g>
</g>
<g>
</g>
<g>
</g>
<g>
</g>
<g>
</g>
<g>
</g>
<g>
</g>
<g>
</g>
<g>
</g>
</svg>
