<?xml version="1.0" encoding="iso-8859-1"?>
<!-- Generator: Adobe Illustrator 19.0.0, SVG Export Plug-In . SVG Version: 6.00 Build 0)  -->
<svg version="1.1" id="Capa_1" xmlns="http://www.w3.org/2000/svg" xmlns:xlink="http://www.w3.org/1999/xlink" x="0px" y="0px"
	 viewBox="0 0 512 512" style="enable-background:new 0 0 512 512;" xml:space="preserve">
<g>
	<g>
		<path d="M435.2,162.133H76.8c-4.71,0-8.533,3.823-8.533,8.533v332.8c0,4.719,3.823,8.533,8.533,8.533h358.4
			c4.719,0,8.533-3.814,8.533-8.533v-332.8C443.733,165.956,439.919,162.133,435.2,162.133z M426.667,494.933H85.333V179.2h341.333
			V494.933z"/>
	</g>
</g>
<g>
	<g>
		<path d="M187.733,51.2v110.933h-25.6V51.2h-17.067v119.467c0,4.71,3.823,8.533,8.533,8.533h42.667c4.71,0,8.533-3.823,8.533-8.533
			V51.2H187.733z"/>
	</g>
</g>
<g>
	<g>
		<path d="M364.433,45.167L321.766,2.5c-1.596-1.604-3.763-2.5-6.033-2.5H196.267c-2.261,0-4.437,0.896-6.033,2.5l-42.667,42.667
			c-2.441,2.441-3.174,6.11-1.852,9.301c1.323,3.183,4.437,5.265,7.885,5.265h204.8c3.447,0,6.571-2.082,7.885-5.265
			C367.607,51.277,366.874,47.607,364.433,45.167z M174.199,42.667l25.6-25.6h112.401l25.6,25.6H174.199z"/>
	</g>
</g>
<g>
	<g>
		<path d="M349.867,51.2v110.933h-25.6V51.2H307.2v119.467c0,4.71,3.814,8.533,8.533,8.533H358.4c4.719,0,8.533-3.823,8.533-8.533
			V51.2H349.867z"/>
	</g>
</g>
<g>
	<g>
		<path d="M185.591,392.533l27.588-46.874l-14.711-8.653l-35.157,59.733c-1.553,2.637-1.57,5.896-0.051,8.559
			c1.519,2.662,4.343,4.301,7.407,4.301h68.267v-17.067H185.591z"/>
	</g>
</g>
<g>
	<g>
		<path d="M348.689,396.74l-35.157-59.733l-14.703,8.653l27.58,46.874h-53.342V409.6h68.267c3.055,0,5.896-1.638,7.415-4.301
			C350.268,402.637,350.251,399.377,348.689,396.74z"/>
	</g>
</g>
<g>
	<g>
		<path d="M263.347,251.674c-3.063-5.205-11.639-5.205-14.703,0l-35.157,59.733l14.711,8.653L256,272.828l27.81,47.232l14.694-8.653
			L263.347,251.674z"/>
	</g>
</g>
<g>
	<g>
		<path d="M299.571,277.786L284.86,307.2H256v17.067h34.133c3.234,0,6.187-1.826,7.637-4.71l17.067-34.133L299.571,277.786z"/>
	</g>
</g>
<g>
	<g>
		<path d="M283.443,399.386l14.319-28.629l-15.266-7.637l-17.067,34.133c-1.638,3.277-0.998,7.245,1.604,9.847l25.6,25.6
			l12.058-12.066L283.443,399.386z"/>
	</g>
</g>
<g>
	<g>
		<path d="M213.077,339.268c-0.947-3.797-4.361-6.468-8.277-6.468h-34.133v17.067h27.469l6.921,27.665l16.555-4.13L213.077,339.268z
			"/>
	</g>
</g>
<g>
</g>
<g>
</g>
<g>
</g>
<g>
</g>
<g>
</g>
<g>
</g>
<g>
</g>
<g>
</g>
<g>
</g>
<g>
</g>
<g>
</g>
<g>
</g>
<g>
</g>
<g>
</g>
<g>
</g>
</svg>
