<?xml version="1.0" encoding="iso-8859-1"?>
<!-- Generator: Adobe Illustrator 19.0.0, SVG Export Plug-In . SVG Version: 6.00 Build 0)  -->
<svg version="1.1" id="Capa_1" xmlns="http://www.w3.org/2000/svg" xmlns:xlink="http://www.w3.org/1999/xlink" x="0px" y="0px"
	 viewBox="0 0 512 512" style="enable-background:new 0 0 512 512;" xml:space="preserve">
<g>
	<g>
		<path d="M503.467,196.228H366.933v17.067h128v34.133H17.067v-34.133h128v-17.067H8.533c-4.71,0-8.533,3.823-8.533,8.533v51.2
			c0,4.719,3.823,8.533,8.533,8.533h494.933c4.719,0,8.533-3.814,8.533-8.533v-51.2C512,200.051,508.186,196.228,503.467,196.228z"
			/>
	</g>
</g>
<g>
	<g>
		<rect x="204.8" y="196.228" width="102.4" height="17.067"/>
	</g>
</g>
<g>
	<g>
		<path d="M484.48,250.577c-1.613-1.997-4.045-3.149-6.613-3.149H34.133c-2.56,0-4.992,1.161-6.613,3.149
			c-1.621,1.98-2.261,4.599-1.741,7.108L71.347,477.93c4.079,19.721,21.649,34.031,41.788,34.031h0.017h285.688
			c0.009,0,0.017,0,0.026,0c20.139,0,37.709-14.302,41.788-34.031l45.568-220.245C486.741,255.185,486.101,252.565,484.48,250.577z
			 M423.936,474.466c-2.449,11.844-12.988,20.429-25.071,20.429h-0.009c-0.009,0-0.009,0-0.009,0H113.143c0,0-0.009,0-0.017,0
			c-12.083,0-22.622-8.585-25.071-20.42l-43.443-209.98h422.767L423.936,474.466z"/>
	</g>
</g>
<g>
	<g>
		<path d="M263.185,25.459C257.954,6.95,238.592-3.845,219.93,1.438l-1.562,0.469c-11.554,3.226-20.514,12.023-23.945,23.458
			l-59.691,194.091c-1.86,6.409-1.86,13.184-0.008,19.576c4.386,15.3,18.423,25.327,33.698,25.327c3.149,0,6.357-0.427,9.54-1.323
			l1.544-0.461c11.605-3.209,20.582-12.015,23.979-23.475l59.588-194.048C264.969,38.651,265.011,31.867,263.185,25.459z
			 M246.733,40.119l-59.58,194.039c-1.741,5.854-6.298,10.325-12.348,11.998l-1.587,0.478c-9.446,2.654-19.362-2.859-22.084-12.339
			c-0.956-3.302-0.956-6.784-0.034-9.958l59.665-194.022c1.758-5.854,6.323-10.334,12.365-12.023l1.621-0.486
			c1.613-0.461,3.251-0.683,4.881-0.683c3.004,0,5.973,0.768,8.678,2.27c4.156,2.321,7.159,6.127,8.457,10.709v0.009
			C247.706,33.412,247.689,36.902,246.733,40.119z"/>
	</g>
</g>
<g>
	<g>
		<path d="M128,281.561c-14.114,0-25.6,11.486-25.6,25.6v128c0,14.114,11.486,25.6,25.6,25.6s25.6-11.477,25.6-25.6v-128
			C153.6,293.047,142.114,281.561,128,281.561z M136.533,435.161c0,4.71-3.831,8.533-8.533,8.533s-8.533-3.823-8.533-8.533v-128
			c0-4.71,3.831-8.533,8.533-8.533s8.533,3.831,8.533,8.533V435.161z"/>
	</g>
</g>
<g>
	<g>
		<path d="M213.333,281.561c-14.114,0-25.6,11.486-25.6,25.6v128c0,14.114,11.486,25.6,25.6,25.6c14.114,0,25.6-11.477,25.6-25.6
			v-128C238.933,293.047,227.447,281.561,213.333,281.561z M221.867,435.161c0,4.71-3.831,8.533-8.533,8.533
			c-4.702,0-8.533-3.823-8.533-8.533v-128c0-4.71,3.831-8.533,8.533-8.533c4.702,0,8.533,3.831,8.533,8.533V435.161z"/>
	</g>
</g>
<g>
	<g>
		<path d="M298.667,281.561c-14.114,0-25.6,11.486-25.6,25.6v128c0,14.114,11.486,25.6,25.6,25.6s25.6-11.477,25.6-25.6v-128
			C324.267,293.047,312.781,281.561,298.667,281.561z M307.2,435.161c0,4.71-3.823,8.533-8.533,8.533s-8.533-3.823-8.533-8.533v-128
			c0-4.71,3.823-8.533,8.533-8.533s8.533,3.831,8.533,8.533V435.161z"/>
	</g>
</g>
<g>
	<g>
		<path d="M384,281.561c-14.114,0-25.6,11.486-25.6,25.6v128c0,14.114,11.486,25.6,25.6,25.6s25.6-11.477,25.6-25.6v-128
			C409.6,293.047,398.114,281.561,384,281.561z M392.533,435.161c0,4.71-3.823,8.533-8.533,8.533s-8.533-3.823-8.533-8.533v-128
			c0-4.71,3.823-8.533,8.533-8.533s8.533,3.831,8.533,8.533V435.161z"/>
	</g>
</g>
<g>
	<g>
		<path d="M377.301,219.396L317.585,25.408c-3.456-11.494-12.416-20.284-23.799-23.467l-1.894-0.563
			c-8.977-2.543-18.381-1.442-26.522,3.115c-8.141,4.548-14.012,11.989-16.555,20.958c-1.818,6.417-1.783,13.201,0.137,19.686
			l59.622,193.963c3.413,11.554,12.39,20.361,23.825,23.501l1.852,0.555c3.14,0.879,6.315,1.306,9.429,1.306
			c15.232-0.009,29.286-10.027,33.655-25.327C379.204,232.725,379.204,225.941,377.301,219.396z M360.951,234.406
			c-2.714,9.446-12.655,14.95-21.939,12.348l-1.894-0.563c-5.897-1.621-10.445-6.093-12.203-12.032L265.293,40.205
			c-0.973-3.302-0.998-6.793-0.06-10.104c1.297-4.582,4.309-8.388,8.465-10.709c2.714-1.51,5.692-2.278,8.687-2.278
			c1.604,0,3.209,0.222,4.77,0.666l1.869,0.555c5.896,1.647,10.462,6.135,12.237,12.049l59.699,193.903
			C361.916,227.588,361.916,231.078,360.951,234.406z"/>
	</g>
</g>
<g>
</g>
<g>
</g>
<g>
</g>
<g>
</g>
<g>
</g>
<g>
</g>
<g>
</g>
<g>
</g>
<g>
</g>
<g>
</g>
<g>
</g>
<g>
</g>
<g>
</g>
<g>
</g>
<g>
</g>
</svg>
