<?xml version="1.0" encoding="iso-8859-1"?>
<!-- Generator: Adobe Illustrator 19.0.0, SVG Export Plug-In . SVG Version: 6.00 Build 0)  -->
<svg version="1.1" id="Capa_1" xmlns="http://www.w3.org/2000/svg" xmlns:xlink="http://www.w3.org/1999/xlink" x="0px" y="0px"
	 viewBox="0 0 512 512" style="enable-background:new 0 0 512 512;" xml:space="preserve">
<g>
	<g>
		<path d="M349.867,85.333H8.533C3.823,85.333,0,89.156,0,93.867v409.6C0,508.186,3.823,512,8.533,512H128v-17.067H17.067V102.4
			h324.267v145.067H358.4v-153.6C358.4,89.156,354.586,85.333,349.867,85.333z"/>
	</g>
</g>
<g>
	<g>
		<path d="M452.267,85.333h-102.4c-4.719,0-8.533,3.823-8.533,8.533v153.6H358.4V102.4h85.333v145.067H460.8v-153.6
			C460.8,89.156,456.986,85.333,452.267,85.333z"/>
	</g>
</g>
<g>
	<g>
		<path d="M401.067,238.933H128c-4.71,0-8.533,3.823-8.533,8.533v256c0,4.719,3.823,8.533,8.533,8.533h273.067
			c4.719,0,8.533-3.814,8.533-8.533v-256C409.6,242.756,405.786,238.933,401.067,238.933z M392.533,494.933h-256V256h256V494.933z"
			/>
	</g>
</g>
<g>
	<g>
		<path d="M503.467,238.933h-102.4c-4.719,0-8.533,3.823-8.533,8.533v256c0,4.719,3.814,8.533,8.533,8.533h102.4
			c4.719,0,8.533-3.814,8.533-8.533v-256C512,242.756,508.186,238.933,503.467,238.933z M494.933,494.933H409.6V256h85.333V494.933z
			"/>
	</g>
</g>
<g>
	<g>
		<path d="M458.743,438.178c-3.234-3.78-9.719-3.78-12.954,0l-51.2,59.733l12.954,11.102l44.723-52.173l44.723,52.173l12.954-11.102
			L458.743,438.178z"/>
	</g>
</g>
<g>
	<g>
		<path d="M179.2,0c-42.342,0-76.8,34.458-76.8,76.8v59.733h17.067V76.8c0-32.939,26.795-59.733,59.733-59.733
			s59.733,26.795,59.733,59.733v59.733H256V76.8C256,34.458,221.542,0,179.2,0z"/>
	</g>
</g>
<g>
	<g>
		<path d="M281.6,0c-42.342,0-76.8,34.458-76.8,76.8v17.067h17.067V76.8c0-32.939,26.795-59.733,59.733-59.733
			c32.93,0,59.733,26.795,59.733,59.733v17.067H358.4V76.8C358.4,34.458,323.951,0,281.6,0z"/>
	</g>
</g>
<g>
	<g>
		<path d="M324.267,290.133v34.133c0,32.93-26.803,59.733-59.733,59.733c-32.939,0-59.733-26.803-59.733-59.733v-34.133h-17.067
			v34.133c0,42.351,34.458,76.8,76.8,76.8c42.351,0,76.8-34.449,76.8-76.8v-34.133H324.267z"/>
	</g>
</g>
<g>
	<g>
		<rect x="443.733" y="247.467" width="17.067" height="196.267"/>
	</g>
</g>
<g>
	<g>
		<rect x="392.533" y="93.867" width="17.067" height="153.6"/>
	</g>
</g>
<g>
</g>
<g>
</g>
<g>
</g>
<g>
</g>
<g>
</g>
<g>
</g>
<g>
</g>
<g>
</g>
<g>
</g>
<g>
</g>
<g>
</g>
<g>
</g>
<g>
</g>
<g>
</g>
<g>
</g>
</svg>
