<?xml version="1.0" encoding="iso-8859-1"?>
<!-- Generator: Adobe Illustrator 19.0.0, SVG Export Plug-In . SVG Version: 6.00 Build 0)  -->
<svg version="1.1" id="Capa_1" xmlns="http://www.w3.org/2000/svg" xmlns:xlink="http://www.w3.org/1999/xlink" x="0px" y="0px"
	 viewBox="0 0 512 512" style="enable-background:new 0 0 512 512;" xml:space="preserve">
<g>
	<g>
		<path d="M503.467,401.067H8.533c-4.71,0-8.533,3.814-8.533,8.533v51.2c0,4.719,3.823,8.533,8.533,8.533h494.933
			c4.719,0,8.533-3.814,8.533-8.533v-51.2C512,404.881,508.186,401.067,503.467,401.067z M494.933,452.267H17.067v-34.133h477.867
			V452.267z"/>
	</g>
</g>
<g>
	<g>
		<path d="M477.73,277.453l-9.472-17.067c-1.374-2.475-3.883-4.113-6.699-4.361c-2.825-0.29-5.581,0.905-7.364,3.098
			c-3.84,4.702-8.166,9.028-12.868,12.868c-38.699,31.599-95.898,25.847-127.514-12.868c-2.244-2.731-5.931-3.831-9.31-2.688
			l-152.832,50.944l-49.203,6.554c-50.202,6.665-91.298,44.373-102.263,93.815l16.657,3.703
			c9.421-42.487,44.732-74.871,87.859-80.606l50.005-6.656c0.538-0.077,1.067-0.188,1.579-0.367l148.173-49.391
			c38.238,41.907,103.202,47.087,147.652,10.786c2.398-1.971,4.719-4.036,6.946-6.204l3.738,6.733
			c21.026,37.786,32.137,80.614,32.119,123.853H512C512.017,363.46,500.164,317.764,477.73,277.453z"/>
	</g>
</g>
<g>
	<g>
		<rect x="128" y="315.733" width="17.067" height="93.867"/>
	</g>
</g>
<g>
	<g>
		<rect x="179.2" y="332.8" width="17.067" height="17.067"/>
	</g>
</g>
<g>
	<g>
		<rect x="213.333" y="324.267" width="17.067" height="17.067"/>
	</g>
</g>
<g>
	<g>
		<rect x="247.467" y="315.733" width="17.067" height="17.067"/>
	</g>
</g>
<g>
	<g>
		<rect x="281.6" y="298.667" width="17.067" height="17.067"/>
	</g>
</g>
<g>
	<g>
		<path d="M483.098,316.39l-2.714,1.135c-38.613,16.623-67.405,49.314-78.985,89.719l16.401,4.702
			c10.172-35.456,35.439-64.154,69.248-78.711l2.645-1.109L483.098,316.39z"/>
	</g>
</g>
<g>
	<g>
		<path d="M483.226,316.356l-42.513,17.007l-3.814,1.442c-38.536,14.413-81.178,10.991-116.941-9.404l-8.448,14.814
			c23.774,13.56,50.253,20.446,76.885,20.446c18.372,0,36.821-3.277,54.502-9.882l46.66-18.577L483.226,316.356z"/>
	</g>
</g>
<g>
	<g>
		<path d="M503.467,42.667H8.533C3.823,42.667,0,46.49,0,51.2v51.2c0,4.71,3.823,8.533,8.533,8.533h494.933
			c4.719,0,8.533-3.823,8.533-8.533V51.2C512,46.49,508.186,42.667,503.467,42.667z M494.933,93.867H17.067V59.733h477.867V93.867z"
			/>
	</g>
</g>
<g>
	<g>
		<path d="M495.138,100.548c-9.421,42.47-44.723,74.863-87.851,80.597l-50.005,6.656c-0.538,0.068-1.058,0.188-1.579,0.358
			L207.522,237.56c-38.212-41.89-103.185-47.087-147.635-10.786c-2.406,1.963-4.727,4.036-6.963,6.204l-3.738-6.733
			C28.16,188.467,17.05,145.638,17.067,102.4H0c-0.017,46.14,11.836,91.836,34.27,132.139l9.472,17.067
			c1.374,2.475,3.883,4.105,6.707,4.361c2.799,0.196,5.581-0.913,7.364-3.106c3.84-4.702,8.166-9.028,12.868-12.868
			c38.699-31.599,95.906-25.83,127.514,12.868c1.647,2.031,4.087,3.14,6.605,3.14c0.896,0,1.809-0.145,2.705-0.444l152.832-50.944
			l49.203-6.545c50.193-6.673,91.298-44.382,102.263-93.824L495.138,100.548z"/>
	</g>
</g>
<g>
	<g>
		<rect x="366.933" y="102.4" width="17.067" height="93.867"/>
	</g>
</g>
<g>
	<g>
		<rect x="315.733" y="162.133" width="17.067" height="17.067"/>
	</g>
</g>
<g>
	<g>
		<rect x="281.6" y="170.667" width="17.067" height="17.067"/>
	</g>
</g>
<g>
	<g>
		<rect x="247.467" y="179.2" width="17.067" height="17.067"/>
	</g>
</g>
<g>
	<g>
		<rect x="213.333" y="196.267" width="17.067" height="17.067"/>
	</g>
</g>
<g>
	<g>
		<path d="M94.199,100.036c-10.172,35.465-35.439,64.162-69.248,78.711l-2.645,1.109l6.588,15.744l2.731-1.143
			c38.613-16.614,67.396-49.306,78.985-89.711L94.199,100.036z"/>
	</g>
</g>
<g>
	<g>
		<path d="M69.103,161.237l-46.669,18.577l6.34,15.846l42.505-17.007l3.823-1.442c38.545-14.421,81.178-10.999,116.941,9.404
			l8.457-14.822C160.324,148.873,112.435,145.033,69.103,161.237z"/>
	</g>
</g>
<g>
</g>
<g>
</g>
<g>
</g>
<g>
</g>
<g>
</g>
<g>
</g>
<g>
</g>
<g>
</g>
<g>
</g>
<g>
</g>
<g>
</g>
<g>
</g>
<g>
</g>
<g>
</g>
<g>
</g>
</svg>
