<?xml version="1.0" encoding="iso-8859-1"?>
<!-- Generator: Adobe Illustrator 19.0.0, SVG Export Plug-In . SVG Version: 6.00 Build 0)  -->
<svg version="1.1" id="Capa_1" xmlns="http://www.w3.org/2000/svg" xmlns:xlink="http://www.w3.org/1999/xlink" x="0px" y="0px"
	 viewBox="0 0 512 512" style="enable-background:new 0 0 512 512;" xml:space="preserve">
<g>
	<g>
		<path d="M503.467,213.333H8.533c-4.71,0-8.533,3.823-8.533,8.533v204.8c0,4.719,3.823,8.533,8.533,8.533h494.933
			c4.719,0,8.533-3.814,8.533-8.533v-204.8C512,217.156,508.186,213.333,503.467,213.333z M494.933,418.133H17.067V230.4h477.867
			V418.133z"/>
	</g>
</g>
<g>
	<g>
		<path d="M256,76.8c-18.825,0-34.133,15.309-34.133,34.133s15.309,34.133,34.133,34.133c18.825,0,34.133-15.309,34.133-34.133
			S274.825,76.8,256,76.8z M256,128c-9.412,0-17.067-7.654-17.067-17.067c0-9.412,7.654-17.067,17.067-17.067
			c9.412,0,17.067,7.654,17.067,17.067C273.067,120.346,265.412,128,256,128z"/>
	</g>
</g>
<g>
	<g>
		<path d="M110.933,315.733H102.4c-9.412,0-17.067-7.654-17.067-17.067v-8.533c0-9.412,7.654-17.067,17.067-17.067h8.533
			c9.412,0,17.067,7.654,17.067,17.067c0,4.719,3.823,8.533,8.533,8.533s8.533-3.814,8.533-8.533
			c0-18.825-15.309-34.133-34.133-34.133H102.4c-18.825,0-34.133,15.309-34.133,34.133v8.533c0,18.825,15.309,34.133,34.133,34.133
			h8.533c9.412,0,17.067,7.654,17.067,17.067v8.533c0,9.412-7.654,17.067-17.067,17.067H102.4c-9.412,0-17.067-7.654-17.067-17.067
			c0-4.719-3.823-8.533-8.533-8.533s-8.533,3.814-8.533,8.533c0,18.825,15.309,34.133,34.133,34.133h8.533
			c18.825,0,34.133-15.309,34.133-34.133v-8.533C145.067,331.042,129.758,315.733,110.933,315.733z"/>
	</g>
</g>
<g>
	<g>
		<path d="M255.667,381.662l-34.133-119.467c-1.041-3.669-4.395-6.195-8.201-6.195c-3.806,0-7.159,2.526-8.209,6.204L170.991,381.67
			c-1.289,4.523,1.331,9.25,5.862,10.547c4.548,1.263,9.259-1.34,10.547-5.871l25.933-90.752l25.933,90.743
			c1.075,3.755,4.489,6.195,8.201,6.195c0.768,0,1.562-0.111,2.338-0.324C254.336,390.912,256.964,386.184,255.667,381.662z"/>
	</g>
</g>
<g>
	<g>
		<path d="M238.933,349.867h-51.2c-4.71,0-8.533,3.814-8.533,8.533s3.823,8.533,8.533,8.533h51.2c4.71,0,8.533-3.814,8.533-8.533
			S243.644,349.867,238.933,349.867z"/>
	</g>
</g>
<g>
	<g>
		<path d="M341.333,375.467h-42.667V264.533c0-4.719-3.814-8.533-8.533-8.533s-8.533,3.814-8.533,8.533V384
			c0,4.719,3.814,8.533,8.533,8.533h51.2c4.719,0,8.533-3.814,8.533-8.533C349.867,379.281,346.052,375.467,341.333,375.467z"/>
	</g>
</g>
<g>
	<g>
		<path d="M435.2,375.467h-42.667v-102.4H435.2c4.719,0,8.533-3.814,8.533-8.533S439.919,256,435.2,256H384
			c-4.719,0-8.533,3.814-8.533,8.533V384c0,4.719,3.814,8.533,8.533,8.533h51.2c4.719,0,8.533-3.814,8.533-8.533
			C443.733,379.281,439.919,375.467,435.2,375.467z"/>
	</g>
</g>
<g>
	<g>
		<path d="M435.2,315.733H384c-4.719,0-8.533,3.814-8.533,8.533c0,4.719,3.814,8.533,8.533,8.533h51.2
			c4.719,0,8.533-3.814,8.533-8.533C443.733,319.548,439.919,315.733,435.2,315.733z"/>
	</g>
</g>
<g>
	<g>
		<path d="M237.5,97.664c-2.62-3.917-7.919-4.992-11.836-2.364l-179.2,119.467c-3.917,2.611-4.975,7.919-2.364,11.836
			c1.647,2.466,4.352,3.797,7.108,3.797c1.621,0,3.268-0.461,4.727-1.434l179.2-119.467
			C239.053,106.889,240.111,101.581,237.5,97.664z"/>
	</g>
</g>
<g>
	<g>
		<path d="M465.536,214.767L286.336,95.3c-3.942-2.628-9.225-1.553-11.836,2.364c-2.62,3.925-1.562,9.225,2.364,11.836
			l179.2,119.467c1.459,0.973,3.106,1.434,4.727,1.434c2.756,0,5.47-1.331,7.108-3.797
			C470.519,222.677,469.461,217.378,465.536,214.767z"/>
	</g>
</g>
<g>
</g>
<g>
</g>
<g>
</g>
<g>
</g>
<g>
</g>
<g>
</g>
<g>
</g>
<g>
</g>
<g>
</g>
<g>
</g>
<g>
</g>
<g>
</g>
<g>
</g>
<g>
</g>
<g>
</g>
</svg>
