<?xml version="1.0" encoding="iso-8859-1"?>
<!-- Generator: Adobe Illustrator 19.0.0, SVG Export Plug-In . SVG Version: 6.00 Build 0)  -->
<svg version="1.1" id="Capa_1" xmlns="http://www.w3.org/2000/svg" xmlns:xlink="http://www.w3.org/1999/xlink" x="0px" y="0px"
	 viewBox="0 0 512 512" style="enable-background:new 0 0 512 512;" xml:space="preserve">
<g>
	<g>
		<path d="M469.333,0H42.667C23.842,0,8.533,15.309,8.533,34.133v341.333c0,18.825,15.309,34.133,34.133,34.133h426.667
			c18.825,0,34.133-15.309,34.133-34.133V34.133C503.467,15.309,488.158,0,469.333,0z M486.4,375.467
			c0,9.412-7.654,17.067-17.067,17.067H42.667c-9.412,0-17.067-7.654-17.067-17.067V34.133c0-9.412,7.654-17.067,17.067-17.067
			h426.667c9.412,0,17.067,7.654,17.067,17.067V375.467z"/>
	</g>
</g>
<g>
	<g>
		<path d="M324.147,502.067l-17.067-102.4c-0.683-4.113-4.241-7.134-8.414-7.134h-85.333c-4.173,0-7.731,3.021-8.414,7.125
			l-17.067,102.4c-0.41,2.475,0.282,5.001,1.903,6.921s4.002,3.021,6.511,3.021h119.467c2.509,0,4.89-1.101,6.502-3.012
			C323.866,507.068,324.565,504.542,324.147,502.067z M206.345,494.933L220.57,409.6h70.878l14.217,85.333H206.345z"/>
	</g>
</g>
<g>
	<g>
		<path d="M341.333,494.933H170.667c-4.71,0-8.533,3.814-8.533,8.533c0,4.719,3.823,8.533,8.533,8.533h170.667
			c4.719,0,8.533-3.814,8.533-8.533C349.867,498.748,346.052,494.933,341.333,494.933z"/>
	</g>
</g>
<g>
	<g>
		<rect x="25.6" y="324.267" width="477.867" height="17.067"/>
	</g>
</g>
<g>
	<g>
		<path d="M76.8,51.2c0,14.114-11.486,25.6-25.6,25.6S25.6,65.314,25.6,51.2v-8.533H8.533V51.2c0,23.526,19.14,42.667,42.667,42.667
			c23.526,0,42.667-19.14,42.667-42.667H76.8z"/>
	</g>
</g>
<g>
	<g>
		<path d="M145.067,51.2c0,14.114-11.486,25.6-25.6,25.6s-25.6-11.486-25.6-25.6V8.533H76.8V51.2
			c0,23.526,19.14,42.667,42.667,42.667s42.667-19.14,42.667-42.667H145.067z"/>
	</g>
</g>
<g>
	<g>
		<path d="M213.333,51.2c0,14.114-11.486,25.6-25.6,25.6s-25.6-11.486-25.6-25.6V8.533h-17.067V51.2
			c0,23.526,19.14,42.667,42.667,42.667c23.526,0,42.667-19.14,42.667-42.667H213.333z"/>
	</g>
</g>
<g>
	<g>
		<path d="M281.6,51.2c0,14.114-11.486,25.6-25.6,25.6s-25.6-11.486-25.6-25.6V8.533h-17.067V51.2
			c0,23.526,19.14,42.667,42.667,42.667c23.526,0,42.667-19.14,42.667-42.667H281.6z"/>
	</g>
</g>
<g>
	<g>
		<path d="M349.867,8.533V51.2c0,14.114-11.486,25.6-25.6,25.6s-25.6-11.486-25.6-25.6V8.533H281.6V51.2
			c0,23.526,19.14,42.667,42.667,42.667c23.526,0,42.667-19.14,42.667-42.667V8.533H349.867z"/>
	</g>
</g>
<g>
	<g>
		<path d="M418.133,8.533V51.2c0,14.114-11.486,25.6-25.6,25.6c-14.114,0-25.6-11.486-25.6-25.6V8.533h-17.067V51.2
			c0,23.526,19.14,42.667,42.667,42.667c23.526,0,42.667-19.14,42.667-42.667V8.533H418.133z"/>
	</g>
</g>
<g>
	<g>
		<path d="M486.4,42.667V51.2c0,14.114-11.486,25.6-25.6,25.6c-14.114,0-25.6-11.486-25.6-25.6V8.533h-17.067V51.2
			c0,23.526,19.14,42.667,42.667,42.667c23.526,0,42.667-19.14,42.667-42.667v-8.533H486.4z"/>
	</g>
</g>
<g>
	<g>
		<path d="M467.311,199.287c-1.621-1.92-4.002-3.021-6.511-3.021h-65.869l-2.654-10.607c-0.956-3.789-4.361-6.46-8.277-6.46h-25.6
			v17.067h18.935l15.454,61.798c0.956,3.797,4.361,6.468,8.277,6.468h51.2c4.173,0,7.731-3.021,8.422-7.125l8.533-51.2
			C469.632,203.733,468.932,201.207,467.311,199.287z M445.039,247.467h-37.308l-8.533-34.133h51.524L445.039,247.467z"/>
	</g>
</g>
<g>
	<g>
		<rect x="392.533" y="281.6" width="17.067" height="17.067"/>
	</g>
</g>
<g>
	<g>
		<rect x="435.2" y="281.6" width="17.067" height="17.067"/>
	</g>
</g>
<g>
	<g>
		<path d="M119.467,110.933H51.2c-4.71,0-8.533,3.823-8.533,8.533v68.267c0,4.71,3.823,8.533,8.533,8.533h68.267
			c4.71,0,8.533-3.823,8.533-8.533v-68.267C128,114.756,124.177,110.933,119.467,110.933z M110.933,179.2h-51.2V128h51.2V179.2z"/>
	</g>
</g>
<g>
	<g>
		<path d="M119.467,213.333H51.2c-4.71,0-8.533,3.823-8.533,8.533v68.267c0,4.719,3.823,8.533,8.533,8.533h68.267
			c4.71,0,8.533-3.814,8.533-8.533v-68.267C128,217.156,124.177,213.333,119.467,213.333z M110.933,281.6h-51.2v-51.2h51.2V281.6z"
			/>
	</g>
</g>
<g>
	<g>
		<path d="M221.867,110.933H153.6c-4.71,0-8.533,3.823-8.533,8.533v68.267c0,4.71,3.823,8.533,8.533,8.533h68.267
			c4.71,0,8.533-3.823,8.533-8.533v-68.267C230.4,114.756,226.577,110.933,221.867,110.933z M213.333,179.2h-51.2V128h51.2V179.2z"
			/>
	</g>
</g>
<g>
	<g>
		<path d="M221.867,213.333H153.6c-4.71,0-8.533,3.823-8.533,8.533v68.267c0,4.719,3.823,8.533,8.533,8.533h68.267
			c4.71,0,8.533-3.814,8.533-8.533v-68.267C230.4,217.156,226.577,213.333,221.867,213.333z M213.333,281.6h-51.2v-51.2h51.2V281.6z
			"/>
	</g>
</g>
<g>
	<g>
		<path d="M324.267,110.933H256c-4.71,0-8.533,3.823-8.533,8.533v68.267c0,4.71,3.823,8.533,8.533,8.533h68.267
			c4.719,0,8.533-3.823,8.533-8.533v-68.267C332.8,114.756,328.986,110.933,324.267,110.933z M315.733,179.2h-51.2V128h51.2V179.2z"
			/>
	</g>
</g>
<g>
	<g>
		<path d="M324.267,213.333H256c-4.71,0-8.533,3.823-8.533,8.533v68.267c0,4.719,3.823,8.533,8.533,8.533h34.133V281.6h-25.6v-51.2
			h51.2v8.533H332.8v-17.067C332.8,217.156,328.986,213.333,324.267,213.333z"/>
	</g>
</g>
<g>
	<g>
		<path d="M315.733,256c-4.719,0-8.533,3.814-8.533,8.533v34.133h17.067v-25.6h25.6V256H315.733z"/>
	</g>
</g>
<g>
	<g>
		
			<rect x="324.251" y="257.433" transform="matrix(0.7071 -0.7071 0.7071 0.7071 -101.629 317.7835)" width="17.066" height="48.273"/>
	</g>
</g>
<g>
	<g>
		<path d="M468.89,142.37c-1.152-3.49-4.412-5.837-8.09-5.837h-8.533v-17.067c0-4.71-3.814-8.533-8.533-8.533H409.6
			c-4.719,0-8.533,3.823-8.533,8.533v17.067h-8.533c-3.678,0-6.929,2.347-8.098,5.837c-1.161,3.482,0.034,7.322,2.978,9.523
			l34.133,25.6c1.519,1.135,3.319,1.707,5.12,1.707s3.601-0.572,5.112-1.707l34.133-25.6
			C468.855,149.692,470.059,145.86,468.89,142.37z M426.667,160l-11.401-8.55c1.758-1.562,2.867-3.849,2.867-6.383V128H435.2v17.067
			c0,2.534,1.109,4.821,2.867,6.383L426.667,160z"/>
	</g>
</g>
<g>
</g>
<g>
</g>
<g>
</g>
<g>
</g>
<g>
</g>
<g>
</g>
<g>
</g>
<g>
</g>
<g>
</g>
<g>
</g>
<g>
</g>
<g>
</g>
<g>
</g>
<g>
</g>
<g>
</g>
</svg>
