<?xml version="1.0" encoding="iso-8859-1"?>
<!-- Generator: Adobe Illustrator 19.0.0, SVG Export Plug-In . SVG Version: 6.00 Build 0)  -->
<svg version="1.1" id="Capa_1" xmlns="http://www.w3.org/2000/svg" xmlns:xlink="http://www.w3.org/1999/xlink" x="0px" y="0px"
	 viewBox="0 0 512 512" style="enable-background:new 0 0 512 512;" xml:space="preserve">
<g>
	<g>
		<path d="M349.867,0H162.133c-23.526,0-42.667,19.14-42.667,42.667v426.667c0,23.526,19.14,42.667,42.667,42.667h187.733
			c23.526,0,42.667-19.14,42.667-42.667V42.667C392.533,19.14,373.393,0,349.867,0z M375.467,469.333
			c0,14.114-11.486,25.6-25.6,25.6H162.133c-14.114,0-25.6-11.486-25.6-25.6V42.667c0-14.114,11.486-25.6,25.6-25.6h187.733
			c14.114,0,25.6,11.486,25.6,25.6V469.333z"/>
	</g>
</g>
<g>
	<g>
		<path d="M162.133,76.8v29.867c0,7.057-5.743,12.8-12.8,12.8c-7.057,0-12.8-5.743-12.8-12.8V76.8h-17.067v29.867
			c0,16.469,13.397,29.867,29.867,29.867c16.469,0,29.867-13.397,29.867-29.867V76.8H162.133z"/>
	</g>
</g>
<g>
	<g>
		<path d="M204.8,76.8v29.867c0,7.057-5.743,12.8-12.8,12.8s-12.8-5.743-12.8-12.8V76.8h-17.067v29.867
			c0,16.469,13.397,29.867,29.867,29.867c16.469,0,29.867-13.397,29.867-29.867V76.8H204.8z"/>
	</g>
</g>
<g>
	<g>
		<path d="M247.467,76.8v29.867c0,7.057-5.743,12.8-12.8,12.8s-12.8-5.743-12.8-12.8V76.8H204.8v29.867
			c0,16.469,13.397,29.867,29.867,29.867c16.469,0,29.867-13.397,29.867-29.867V76.8H247.467z"/>
	</g>
</g>
<g>
	<g>
		<path d="M290.133,76.8v29.867c0,7.057-5.743,12.8-12.8,12.8s-12.8-5.743-12.8-12.8V76.8h-17.067v29.867
			c0,16.469,13.397,29.867,29.867,29.867c16.469,0,29.867-13.397,29.867-29.867V76.8H290.133z"/>
	</g>
</g>
<g>
	<g>
		<path d="M332.8,76.8v29.867c0,7.057-5.743,12.8-12.8,12.8s-12.8-5.743-12.8-12.8V76.8h-17.067v29.867
			c0,16.469,13.397,29.867,29.867,29.867c16.469,0,29.867-13.397,29.867-29.867V76.8H332.8z"/>
	</g>
</g>
<g>
	<g>
		<path d="M375.467,76.8v29.867c0,7.057-5.743,12.8-12.8,12.8s-12.8-5.743-12.8-12.8V76.8H332.8v29.867
			c0,16.469,13.397,29.867,29.867,29.867s29.867-13.397,29.867-29.867V76.8H375.467z"/>
	</g>
</g>
<g>
	<g>
		<rect x="204.8" y="34.133" width="102.4" height="17.067"/>
	</g>
</g>
<g>
	<g>
		<rect x="230.4" y="460.8" width="51.2" height="17.067"/>
	</g>
</g>
<g>
	<g>
		<rect x="128" y="68.267" width="256" height="17.067"/>
	</g>
</g>
<g>
	<g>
		<rect x="128" y="426.667" width="256" height="17.067"/>
	</g>
</g>
<g>
	<g>
		<path d="M204.8,358.4c-14.114,0-25.6,11.486-25.6,25.6s11.486,25.6,25.6,25.6s25.6-11.486,25.6-25.6S218.914,358.4,204.8,358.4z
			 M204.8,392.533c-4.702,0-8.533-3.823-8.533-8.533s3.831-8.533,8.533-8.533c4.702,0,8.533,3.823,8.533,8.533
			S209.502,392.533,204.8,392.533z"/>
	</g>
</g>
<g>
	<g>
		<path d="M307.2,358.4c-14.114,0-25.6,11.486-25.6,25.6s11.486,25.6,25.6,25.6s25.6-11.486,25.6-25.6S321.314,358.4,307.2,358.4z
			 M307.2,392.533c-4.71,0-8.533-3.823-8.533-8.533s3.823-8.533,8.533-8.533s8.533,3.823,8.533,8.533S311.91,392.533,307.2,392.533z
			"/>
	</g>
</g>
<g>
	<g>
		<rect x="213.333" y="273.067" width="17.067" height="34.133"/>
	</g>
</g>
<g>
	<g>
		<rect x="247.467" y="273.067" width="17.067" height="34.133"/>
	</g>
</g>
<g>
	<g>
		<path d="M339.396,242.057c-1.621-1.98-4.036-3.123-6.596-3.123H196.267V256h126.131l-13.653,68.267H204.8
			c-14.114,0-25.6,11.486-25.6,25.6s11.486,25.6,25.6,25.6h102.4V358.4H204.8c-4.702,0-8.533-3.823-8.533-8.533
			s3.831-8.533,8.533-8.533h110.933c4.07,0,7.569-2.876,8.363-6.861l17.067-85.333C341.666,246.63,341.009,244.028,339.396,242.057z
			"/>
	</g>
</g>
<g>
	<g>
		<path d="M189.798,205.056l-34.133-8.533l-4.139,16.555l27.674,6.921v129.869h17.067V213.333
			C196.267,209.417,193.604,206.003,189.798,205.056z"/>
	</g>
</g>
<g>
	<g>
		<rect x="281.6" y="273.067" width="17.067" height="34.133"/>
	</g>
</g>
<g>
	<g>
		<path d="M298.223,185.037c-1.152-3.49-4.412-5.837-8.09-5.837H281.6v-17.067c0-4.71-3.814-8.533-8.533-8.533h-34.133
			c-4.71,0-8.533,3.823-8.533,8.533V179.2h-8.533c-3.678,0-6.929,2.347-8.098,5.837c-1.161,3.482,0.043,7.322,2.978,9.523
			l34.133,25.6c1.519,1.135,3.319,1.707,5.12,1.707s3.601-0.572,5.112-1.707l34.133-25.6
			C298.189,192.358,299.392,188.527,298.223,185.037z M256,202.667l-11.401-8.55c1.758-1.562,2.867-3.849,2.867-6.383v-17.067
			h17.067v17.067c0,2.534,1.109,4.821,2.867,6.383L256,202.667z"/>
	</g>
</g>
<g>
</g>
<g>
</g>
<g>
</g>
<g>
</g>
<g>
</g>
<g>
</g>
<g>
</g>
<g>
</g>
<g>
</g>
<g>
</g>
<g>
</g>
<g>
</g>
<g>
</g>
<g>
</g>
<g>
</g>
</svg>
