<?xml version="1.0" encoding="iso-8859-1"?>
<!-- Generator: Adobe Illustrator 19.0.0, SVG Export Plug-In . SVG Version: 6.00 Build 0)  -->
<svg version="1.1" id="Capa_1" xmlns="http://www.w3.org/2000/svg" xmlns:xlink="http://www.w3.org/1999/xlink" x="0px" y="0px"
	 viewBox="0 0 512 512" style="enable-background:new 0 0 512 512;" xml:space="preserve">
<g>
	<g>
		<path d="M179.167,426.667H162.1c-14.114,0-25.6,11.486-25.6,25.6c0,14.114,11.486,25.6,25.6,25.6h17.067
			c14.123,0,25.6-11.486,25.6-25.6C204.767,438.153,193.281,426.667,179.167,426.667z M179.167,460.8H162.1
			c-4.702,0-8.533-3.823-8.533-8.533c0-4.71,3.831-8.533,8.533-8.533h17.067c4.702,0,8.533,3.823,8.533,8.533
			C187.7,456.977,183.869,460.8,179.167,460.8z"/>
	</g>
</g>
<g>
	<g>
		<path d="M264.5,426.667h-17.067c-14.114,0-25.6,11.486-25.6,25.6c0,14.114,11.486,25.6,25.6,25.6H264.5
			c14.123,0,25.6-11.486,25.6-25.6C290.1,438.153,278.614,426.667,264.5,426.667z M264.5,460.8h-17.067
			c-4.702,0-8.533-3.823-8.533-8.533c0-4.71,3.831-8.533,8.533-8.533H264.5c4.71,0,8.533,3.823,8.533,8.533
			C273.034,456.977,269.211,460.8,264.5,460.8z"/>
	</g>
</g>
<g>
	<g>
		<path d="M179.167,358.4H162.1c-14.114,0-25.6,11.486-25.6,25.6s11.486,25.6,25.6,25.6h17.067c14.123,0,25.6-11.486,25.6-25.6
			S193.281,358.4,179.167,358.4z M179.167,392.533H162.1c-4.702,0-8.533-3.823-8.533-8.533s3.831-8.533,8.533-8.533h17.067
			c4.702,0,8.533,3.823,8.533,8.533S183.869,392.533,179.167,392.533z"/>
	</g>
</g>
<g>
	<g>
		<path d="M264.5,358.4h-17.067c-14.114,0-25.6,11.486-25.6,25.6s11.486,25.6,25.6,25.6H264.5c14.123,0,25.6-11.486,25.6-25.6
			S278.614,358.4,264.5,358.4z M264.5,392.533h-17.067c-4.702,0-8.533-3.823-8.533-8.533s3.831-8.533,8.533-8.533H264.5
			c4.71,0,8.533,3.823,8.533,8.533S269.211,392.533,264.5,392.533z"/>
	</g>
</g>
<g>
	<g>
		<path d="M179.167,290.133H162.1c-14.114,0-25.6,11.486-25.6,25.6s11.486,25.6,25.6,25.6h17.067c14.123,0,25.6-11.486,25.6-25.6
			S193.281,290.133,179.167,290.133z M179.167,324.267H162.1c-4.702,0-8.533-3.823-8.533-8.533s3.831-8.533,8.533-8.533h17.067
			c4.702,0,8.533,3.823,8.533,8.533S183.869,324.267,179.167,324.267z"/>
	</g>
</g>
<g>
	<g>
		<path d="M264.5,290.133h-17.067c-14.114,0-25.6,11.486-25.6,25.6s11.486,25.6,25.6,25.6H264.5c14.123,0,25.6-11.486,25.6-25.6
			S278.614,290.133,264.5,290.133z M264.5,324.267h-17.067c-4.702,0-8.533-3.823-8.533-8.533s3.831-8.533,8.533-8.533H264.5
			c4.71,0,8.533,3.823,8.533,8.533S269.211,324.267,264.5,324.267z"/>
	</g>
</g>
<g>
	<g>
		<path d="M349.834,426.667h-17.067c-14.114,0-25.6,11.486-25.6,25.6c0,14.114,11.486,25.6,25.6,25.6h17.067
			c14.123,0,25.6-11.486,25.6-25.6C375.434,438.153,363.948,426.667,349.834,426.667z M349.834,460.8h-17.067
			c-4.71,0-8.533-3.823-8.533-8.533c0-4.71,3.823-8.533,8.533-8.533h17.067c4.71,0,8.533,3.823,8.533,8.533
			C358.367,456.977,354.544,460.8,349.834,460.8z"/>
	</g>
</g>
<g>
	<g>
		<path d="M349.834,358.4h-17.067c-14.114,0-25.6,11.486-25.6,25.6s11.486,25.6,25.6,25.6h17.067c14.123,0,25.6-11.486,25.6-25.6
			S363.948,358.4,349.834,358.4z M349.834,392.533h-17.067c-4.71,0-8.533-3.823-8.533-8.533s3.823-8.533,8.533-8.533h17.067
			c4.71,0,8.533,3.823,8.533,8.533S354.544,392.533,349.834,392.533z"/>
	</g>
</g>
<g>
	<g>
		<path d="M349.834,290.133h-17.067c-14.114,0-25.6,11.486-25.6,25.6s11.486,25.6,25.6,25.6h17.067c14.123,0,25.6-11.486,25.6-25.6
			S363.948,290.133,349.834,290.133z M349.834,324.267h-17.067c-4.71,0-8.533-3.823-8.533-8.533s3.823-8.533,8.533-8.533h17.067
			c4.71,0,8.533,3.823,8.533,8.533S354.544,324.267,349.834,324.267z"/>
	</g>
</g>
<g>
	<g>
		<path d="M392.5,196.267v273.067c0,14.114-11.486,25.6-25.6,25.6H145.034c-14.114,0-25.6-11.486-25.6-25.6V76.8
			c0-14.114,11.486-25.6,25.6-25.6H187.7V34.133h-42.667c-23.526,0-42.667,19.14-42.667,42.667v392.533
			c0,23.526,19.14,42.667,42.667,42.667H366.9c23.526,0,42.667-19.14,42.667-42.667V196.267H392.5z"/>
	</g>
</g>
<g>
	<g>
		<path d="M358.367,196.267V256h-204.8V102.4H187.7V85.333h-34.133c-9.412,0-17.067,7.654-17.067,17.067V256
			c0,9.412,7.654,17.067,17.067,17.067h204.8c9.412,0,17.067-7.654,17.067-17.067v-59.733H358.367z"/>
	</g>
</g>
<g>
	<g>
		<path d="M477.834,0H213.3c-18.825,0-34.133,15.309-34.133,34.133v136.533c0,18.825,15.309,34.133,34.133,34.133h264.533
			c18.825,0,34.133-15.309,34.133-34.133V34.133C511.967,15.309,496.658,0,477.834,0z M494.9,170.667
			c0,9.412-7.654,17.067-17.067,17.067H213.3c-9.412,0-17.067-7.654-17.067-17.067V34.133c0-9.412,7.654-17.067,17.067-17.067
			h264.533c9.412,0,17.067,7.654,17.067,17.067V170.667z"/>
	</g>
</g>
<g>
	<g>
		<path d="M435.167,34.133h-179.2c-4.71,0-8.533,3.823-8.533,8.533v119.467c0,4.71,3.823,8.533,8.533,8.533h179.2
			c4.719,0,8.533-3.823,8.533-8.533V42.667C443.7,37.956,439.886,34.133,435.167,34.133z M426.634,153.6H264.5V51.2h162.133V153.6z"
			/>
	</g>
</g>
<g>
	<g>
		<path d="M375.442,68.267h-6.494c-9.796,0.009-18.568,5.453-22.903,14.174l-16.23,32.29c-1.451,2.918-4.378,4.736-7.637,4.736
			h-6.485c-4.71,0-8.533-3.831-8.533-8.533V93.867c0-4.702,3.823-8.533,8.533-8.533h8.533V68.267h-8.533
			c-14.114,0-25.6,11.486-25.6,25.6v17.067c0,14.114,11.486,25.6,25.6,25.6h6.494c9.779-0.009,18.56-5.453,22.895-14.174
			l16.23-32.299c1.451-2.918,4.378-4.727,7.637-4.727h6.485c4.71,0,8.533,3.831,8.533,8.533v17.067c0,4.702-3.823,8.533-8.533,8.533
			v17.067c14.123,0,25.6-11.486,25.609-25.6V93.867C401.042,79.753,389.556,68.267,375.442,68.267z"/>
	</g>
</g>
<g>
	<g>
		<rect x="281.567" y="93.867" width="17.067" height="17.067"/>
	</g>
</g>
<g>
	<g>
		<rect x="392.5" y="93.867" width="17.067" height="17.067"/>
	</g>
</g>
<g>
	<g>
		<path d="M63.694,132.582l-12.075-12.058c-23.245,23.27-23.245,61.141,0,84.42l12.075-12.058
			C47.088,176.256,47.088,149.205,63.694,132.582z"/>
	</g>
</g>
<g>
	<g>
		<path d="M39.536,108.433L27.47,96.367c-36.582,36.591-36.582,96.128,0,132.727l12.066-12.066
			C9.61,187.085,9.61,138.368,39.536,108.433z"/>
	</g>
</g>
<g>
	<g>
		<rect x="145.034" y="221.867" width="221.867" height="17.067"/>
	</g>
</g>
<g>
	<g>
		<rect x="247.434" y="230.4" width="17.067" height="34.133"/>
	</g>
</g>
<g>
	<g>
		<rect x="187.7" y="230.4" width="17.067" height="34.133"/>
	</g>
</g>
<g>
	<g>
		<rect x="307.167" y="230.4" width="17.067" height="34.133"/>
	</g>
</g>
<g>
	<g>
		<rect x="213.3" y="59.733" width="17.067" height="76.8"/>
	</g>
</g>
<g>
	<g>
		<rect x="460.767" y="93.867" width="17.067" height="17.067"/>
	</g>
</g>
<g>
	<g>
		<rect x="460.767" y="59.733" width="17.067" height="17.067"/>
	</g>
</g>
<g>
	<g>
		<rect x="460.767" y="128" width="17.067" height="17.067"/>
	</g>
</g>
<g>
</g>
<g>
</g>
<g>
</g>
<g>
</g>
<g>
</g>
<g>
</g>
<g>
</g>
<g>
</g>
<g>
</g>
<g>
</g>
<g>
</g>
<g>
</g>
<g>
</g>
<g>
</g>
<g>
</g>
</svg>
