<?xml version="1.0" encoding="iso-8859-1"?>
<!-- Generator: Adobe Illustrator 19.0.0, SVG Export Plug-In . SVG Version: 6.00 Build 0)  -->
<svg version="1.1" id="Capa_1" xmlns="http://www.w3.org/2000/svg" xmlns:xlink="http://www.w3.org/1999/xlink" x="0px" y="0px"
	 viewBox="0 0 512 512" style="enable-background:new 0 0 512 512;" xml:space="preserve">
<g>
	<g>
		<path d="M401.067,34.133h-25.6V51.2h25.6c51.755,0,93.867,42.112,93.867,93.867v51.2h-65.417c-0.06,0-0.12,0-0.179,0
			c-15.189,0-29.338,8.166-37.009,21.444C381.124,237.79,276.796,429.022,259.465,460.8H49.835
			c-18.065,0-32.768-14.703-32.759-32.76c0.009-13.013,7.723-24.789,19.635-29.995l111.787-48.896l-6.844-15.633L29.867,382.413
			C11.733,390.34,0.017,408.243,0,428.032c0,27.477,22.357,49.835,49.835,49.835h214.699c3.123,0,5.999-1.707,7.484-4.446
			c1.237-2.253,123.085-225.664,135.151-247.287c4.574-7.902,13.056-12.8,22.204-12.8c0.043,0,0.077,0,0.111,0h73.984
			c4.719,0,8.533-3.823,8.533-8.533v-59.733C512,83.9,462.234,34.133,401.067,34.133z"/>
	</g>
</g>
<g>
	<g>
		<path d="M509.875,199.168c-1.613-1.843-3.959-2.901-6.409-2.901h-76.8c-2.313,0-4.523,0.939-6.135,2.594
			c-1.604,1.664-2.466,3.9-2.389,6.212l8.533,264.533c0.145,4.599,3.917,8.26,8.525,8.26h34.133c4.292,0,7.919-3.183,8.465-7.441
			l34.133-264.533C512.239,203.46,511.488,201.011,509.875,199.168z M461.833,460.8h-18.364l-7.987-247.467h58.274L461.833,460.8z"
			/>
	</g>
</g>
<g>
	<g>
		<path d="M396.937,42.197c-5.12-5.163-11.93-8.03-19.217-8.064c-0.034,0-0.068,0-0.102,0c-9.668,0-18.654,5.197-23.432,13.542
			L216.073,285.141c-5.82,10.18-14.438,18.364-24.9,23.646l-49.92,24.917c-3.26,1.621-5.12,5.146-4.642,8.764
			c0.478,3.618,3.209,6.519,6.784,7.236l55.552,11.093c3.336,0.666,6.69,0.99,10.01,0.99c17.903,0,34.859-9.438,44.228-25.387
			l148.173-261.76c2.236-4.019,3.439-8.567,3.465-13.158C404.855,54.212,402.057,47.36,396.937,42.197z M386.475,66.287
			l-148.07,261.598c-7.356,12.518-21.862,18.978-36.113,16.179l-31.121-6.221l27.665-13.807c13.483-6.81,24.568-17.34,32.026-30.379
			L368.956,56.209c1.775-3.089,5.094-5.009,8.653-5.009c0.009,0,0.026,0,0.034,0c2.714,0.017,5.257,1.084,7.159,3.012
			c1.911,1.929,2.961,4.489,2.944,7.194C387.738,63.121,387.294,64.828,386.475,66.287z"/>
	</g>
</g>
<g>
</g>
<g>
</g>
<g>
</g>
<g>
</g>
<g>
</g>
<g>
</g>
<g>
</g>
<g>
</g>
<g>
</g>
<g>
</g>
<g>
</g>
<g>
</g>
<g>
</g>
<g>
</g>
<g>
</g>
</svg>
