<?xml version="1.0" encoding="iso-8859-1"?>
<!-- Generator: Adobe Illustrator 19.0.0, SVG Export Plug-In . SVG Version: 6.00 Build 0)  -->
<svg version="1.1" id="Capa_1" xmlns="http://www.w3.org/2000/svg" xmlns:xlink="http://www.w3.org/1999/xlink" x="0px" y="0px"
	 viewBox="0 0 512 512" style="enable-background:new 0 0 512 512;" xml:space="preserve">
<g>
	<g>
		<path d="M503.467,136.533H366.933c-2.27,0-4.437,0.896-6.033,2.5l-11.034,11.034l-11.034-11.034c-1.596-1.604-3.763-2.5-6.033-2.5
			H8.533c-4.71,0-8.533,3.823-8.533,8.533v221.867c0,4.719,3.823,8.533,8.533,8.533H332.8c2.27,0,4.437-0.896,6.033-2.5
			l11.034-11.034l11.034,11.034c1.596,1.604,3.763,2.5,6.033,2.5h136.533c4.719,0,8.533-3.814,8.533-8.533V145.067
			C512,140.356,508.186,136.533,503.467,136.533z M494.933,358.4H370.466L355.9,343.834c-3.337-3.337-8.73-3.337-12.066,0
			L329.267,358.4H17.067V153.6h312.201l14.566,14.566c3.337,3.336,8.73,3.336,12.066,0l14.566-14.566h124.467V358.4z"/>
	</g>
</g>
<g>
	<g>
		<rect x="341.333" y="204.8" width="17.067" height="25.6"/>
	</g>
</g>
<g>
	<g>
		<rect x="341.333" y="247.467" width="17.067" height="25.6"/>
	</g>
</g>
<g>
	<g>
		<rect x="341.333" y="290.133" width="17.067" height="25.6"/>
	</g>
</g>
<g>
	<g>
		<rect x="341.333" y="332.8" width="17.067" height="17.067"/>
	</g>
</g>
<g>
	<g>
		<rect x="341.333" y="162.133" width="17.067" height="25.6"/>
	</g>
</g>
<g>
	<g>
		<rect x="119.467" y="145.067" width="17.067" height="221.867"/>
	</g>
</g>
<g>
	<g>
		<rect x="8.533" y="221.867" width="494.933" height="17.067"/>
	</g>
</g>
<g>
	<g>
		<path d="M134.562,224.93l-34.987-41.976c-6.502-7.808-16.068-12.288-26.214-12.288c-0.026,0-0.043,0-0.06,0h-5.035
			c-18.825,0-34.133,15.309-34.133,34.133s15.309,34.133,34.133,34.133H128c3.311,0,6.323-1.92,7.74-4.924
			C137.139,231.014,136.687,227.473,134.562,224.93z M68.267,221.867c-9.412,0-17.067-7.654-17.067-17.067
			c0-9.412,7.654-17.067,17.067-17.067h5.052c0.009,0,0.017,0,0.026,0c5.077,0,9.856,2.236,13.116,6.144l23.322,27.989H68.267z"/>
	</g>
</g>
<g>
	<g>
		<path d="M187.733,170.667h-5.026c-0.017,0-0.034,0-0.051,0c-10.163,0-19.721,4.48-26.223,12.288l-34.987,41.984
			c-2.125,2.534-2.586,6.076-1.178,9.079c1.408,2.995,4.42,4.915,7.731,4.915h59.733c18.825,0,34.133-15.309,34.133-34.133
			S206.558,170.667,187.733,170.667z M187.733,221.867h-41.515l23.33-27.989c3.251-3.908,8.03-6.144,13.124-6.144
			c0.008,0,0.017,0,0.026,0h5.035c9.412,0,17.067,7.654,17.067,17.067C204.8,214.212,197.146,221.867,187.733,221.867z"/>
	</g>
</g>
<g>
	<g>
		
			<rect x="48.504" y="251.724" transform="matrix(0.7526 -0.6584 0.6584 0.7526 -148.1458 126.1759)" width="90.705" height="17.066"/>
	</g>
</g>
<g>
	<g>
		
			<rect x="149.312" y="217.987" transform="matrix(0.7071 -0.7071 0.7071 0.7071 -137.7731 187.8305)" width="17.067" height="84.471"/>
	</g>
</g>
<g>
	<g>
		<rect x="213.333" y="273.067" width="93.867" height="17.067"/>
	</g>
</g>
<g>
	<g>
		<rect x="213.333" y="307.2" width="59.733" height="17.067"/>
	</g>
</g>
<g>
	<g>
		<rect x="290.133" y="307.2" width="17.067" height="17.067"/>
	</g>
</g>
<g>
	<g>
		<rect x="418.133" y="273.067" width="51.2" height="17.067"/>
	</g>
</g>
<g>
	<g>
		<rect x="418.133" y="307.2" width="51.2" height="17.067"/>
	</g>
</g>
<g>
</g>
<g>
</g>
<g>
</g>
<g>
</g>
<g>
</g>
<g>
</g>
<g>
</g>
<g>
</g>
<g>
</g>
<g>
</g>
<g>
</g>
<g>
</g>
<g>
</g>
<g>
</g>
<g>
</g>
</svg>
