<?xml version="1.0" encoding="iso-8859-1"?>
<!-- Generator: Adobe Illustrator 19.0.0, SVG Export Plug-In . SVG Version: 6.00 Build 0)  -->
<svg version="1.1" id="Capa_1" xmlns="http://www.w3.org/2000/svg" xmlns:xlink="http://www.w3.org/1999/xlink" x="0px" y="0px"
	 viewBox="0 0 512 512" style="enable-background:new 0 0 512 512;" xml:space="preserve">
<g>
	<g>
		<path d="M460.8,119.467H170.667v17.067H460.8c9.412,0,17.067,7.654,17.067,17.067v324.267c0,9.412-7.654,17.067-17.067,17.067
			H51.2c-9.412,0-17.067-7.654-17.067-17.067V153.6c0-9.412,7.654-17.067,17.067-17.067h34.133v-17.067H51.2
			c-18.825,0-34.133,15.309-34.133,34.133v324.267C17.067,496.691,32.375,512,51.2,512h409.6c18.825,0,34.133-15.309,34.133-34.133
			V153.6C494.933,134.775,479.625,119.467,460.8,119.467z"/>
	</g>
</g>
<g>
	<g>
		<path d="M435.2,0H264.533C259.814,0,256,3.823,256,8.533V76.8c0,4.71,3.814,8.533,8.533,8.533H435.2
			c4.719,0,8.533-3.823,8.533-8.533V8.533C443.733,3.823,439.919,0,435.2,0z M426.667,68.267h-153.6v-51.2h153.6V68.267z"/>
	</g>
</g>
<g>
	<g>
		<rect x="392.533" y="34.133" width="17.067" height="17.067"/>
	</g>
</g>
<g>
	<g>
		<rect x="358.4" y="34.133" width="17.067" height="17.067"/>
	</g>
</g>
<g>
	<g>
		<rect x="324.267" y="34.133" width="17.067" height="17.067"/>
	</g>
</g>
<g>
	<g>
		<rect x="290.133" y="34.133" width="17.067" height="17.067"/>
	</g>
</g>
<g>
	<g>
		<path d="M366.933,68.267H332.8c-4.719,0-8.533,3.823-8.533,8.533V128c0,4.71,3.814,8.533,8.533,8.533h34.133
			c4.719,0,8.533-3.823,8.533-8.533V76.8C375.467,72.09,371.652,68.267,366.933,68.267z M358.4,119.467h-17.067V85.333H358.4
			V119.467z"/>
	</g>
</g>
<g>
	<g>
		<rect x="59.733" y="213.333" width="136.533" height="17.067"/>
	</g>
</g>
<g>
	<g>
		<path d="M443.733,153.6H273.067c-4.719,0-8.533,3.823-8.533,8.533V230.4c0,4.71,3.814,8.533,8.533,8.533h170.667
			c4.719,0,8.533-3.823,8.533-8.533v-68.267C452.267,157.423,448.452,153.6,443.733,153.6z M435.2,221.867H281.6v-51.2h153.6
			V221.867z"/>
	</g>
</g>
<g>
	<g>
		<path d="M486.4,392.533H25.6c-4.71,0-8.533,3.814-8.533,8.533c0,4.719,3.823,8.533,8.533,8.533h460.8
			c4.719,0,8.533-3.814,8.533-8.533C494.933,396.348,491.119,392.533,486.4,392.533z"/>
	</g>
</g>
<g>
	<g>
		<path d="M256,426.667c-14.114,0-25.6,11.486-25.6,25.6c0,14.114,11.486,25.6,25.6,25.6s25.6-11.486,25.6-25.6
			C281.6,438.153,270.114,426.667,256,426.667z M256,460.8c-4.702,0-8.533-3.823-8.533-8.533c0-4.71,3.831-8.533,8.533-8.533
			c4.71,0,8.533,3.823,8.533,8.533C264.533,456.977,260.71,460.8,256,460.8z"/>
	</g>
</g>
<g>
	<g>
		<path d="M443.733,324.267H409.6c-4.719,0-8.533,3.814-8.533,8.533v34.133c0,4.719,3.814,8.533,8.533,8.533h34.133
			c4.719,0,8.533-3.814,8.533-8.533V332.8C452.267,328.081,448.452,324.267,443.733,324.267z M435.2,358.4h-17.067v-17.067H435.2
			V358.4z"/>
	</g>
</g>
<g>
	<g>
		<path d="M443.733,256H409.6c-4.719,0-8.533,3.814-8.533,8.533v34.133c0,4.719,3.814,8.533,8.533,8.533h34.133
			c4.719,0,8.533-3.814,8.533-8.533v-34.133C452.267,259.814,448.452,256,443.733,256z M435.2,290.133h-17.067v-17.067H435.2
			V290.133z"/>
	</g>
</g>
<g>
	<g>
		<path d="M375.467,324.267h-34.133c-4.719,0-8.533,3.814-8.533,8.533v34.133c0,4.719,3.814,8.533,8.533,8.533h34.133
			c4.719,0,8.533-3.814,8.533-8.533V332.8C384,328.081,380.186,324.267,375.467,324.267z M366.933,358.4h-17.067v-17.067h17.067
			V358.4z"/>
	</g>
</g>
<g>
	<g>
		<path d="M375.467,256h-34.133c-4.719,0-8.533,3.814-8.533,8.533v34.133c0,4.719,3.814,8.533,8.533,8.533h34.133
			c4.719,0,8.533-3.814,8.533-8.533v-34.133C384,259.814,380.186,256,375.467,256z M366.933,290.133h-17.067v-17.067h17.067V290.133
			z"/>
	</g>
</g>
<g>
	<g>
		<path d="M307.2,324.267h-34.133c-4.719,0-8.533,3.814-8.533,8.533v34.133c0,4.719,3.814,8.533,8.533,8.533H307.2
			c4.719,0,8.533-3.814,8.533-8.533V332.8C315.733,328.081,311.919,324.267,307.2,324.267z M298.667,358.4H281.6v-17.067h17.067
			V358.4z"/>
	</g>
</g>
<g>
	<g>
		<path d="M307.2,256h-34.133c-4.719,0-8.533,3.814-8.533,8.533v34.133c0,4.719,3.814,8.533,8.533,8.533H307.2
			c4.719,0,8.533-3.814,8.533-8.533v-34.133C315.733,259.814,311.919,256,307.2,256z M298.667,290.133H281.6v-17.067h17.067V290.133
			z"/>
	</g>
</g>
<g>
	<g>
		<path d="M238.933,324.267H204.8c-4.71,0-8.533,3.814-8.533,8.533v34.133c0,4.719,3.823,8.533,8.533,8.533h34.133
			c4.71,0,8.533-3.814,8.533-8.533V332.8C247.467,328.081,243.644,324.267,238.933,324.267z M230.4,358.4h-17.067v-17.067H230.4
			V358.4z"/>
	</g>
</g>
<g>
	<g>
		<path d="M238.933,256H204.8c-4.71,0-8.533,3.814-8.533,8.533v34.133c0,4.719,3.823,8.533,8.533,8.533h34.133
			c4.71,0,8.533-3.814,8.533-8.533v-34.133C247.467,259.814,243.644,256,238.933,256z M230.4,290.133h-17.067v-17.067H230.4V290.133
			z"/>
	</g>
</g>
<g>
	<g>
		<path d="M170.667,324.267h-34.133c-4.71,0-8.533,3.814-8.533,8.533v34.133c0,4.719,3.823,8.533,8.533,8.533h34.133
			c4.71,0,8.533-3.814,8.533-8.533V332.8C179.2,328.081,175.377,324.267,170.667,324.267z M162.133,358.4h-17.067v-17.067h17.067
			V358.4z"/>
	</g>
</g>
<g>
	<g>
		<path d="M170.667,256h-34.133c-4.71,0-8.533,3.814-8.533,8.533v34.133c0,4.719,3.823,8.533,8.533,8.533h34.133
			c4.71,0,8.533-3.814,8.533-8.533v-34.133C179.2,259.814,175.377,256,170.667,256z M162.133,290.133h-17.067v-17.067h17.067
			V290.133z"/>
	</g>
</g>
<g>
	<g>
		<path d="M102.4,324.267H68.267c-4.71,0-8.533,3.814-8.533,8.533v34.133c0,4.719,3.823,8.533,8.533,8.533H102.4
			c4.71,0,8.533-3.814,8.533-8.533V332.8C110.933,328.081,107.11,324.267,102.4,324.267z M93.867,358.4H76.8v-17.067h17.067V358.4z"
			/>
	</g>
</g>
<g>
	<g>
		<path d="M102.4,256H68.267c-4.71,0-8.533,3.814-8.533,8.533v34.133c0,4.719,3.823,8.533,8.533,8.533H102.4
			c4.71,0,8.533-3.814,8.533-8.533v-34.133C110.933,259.814,107.11,256,102.4,256z M93.867,290.133H76.8v-17.067h17.067V290.133z"/>
	</g>
</g>
<g>
	<g>
		<rect x="51.2" y="443.733" width="145.067" height="17.067"/>
	</g>
</g>
<g>
	<g>
		<rect x="315.733" y="443.733" width="145.067" height="17.067"/>
	</g>
</g>
<g>
	<g>
		<path d="M175.65,78.413c-2.219-1.613-5.086-2.039-7.689-1.178l-22.246,7.415l-13.901-6.955c-2.406-1.203-5.239-1.203-7.637,0
			l-13.901,6.955L88.03,77.235c-2.594-0.862-5.461-0.435-7.68,1.178c-2.236,1.604-3.55,4.181-3.55,6.921v136.533h17.067V97.169
			l14.362,4.787c2.15,0.708,4.497,0.546,6.519-0.461L128,94.874l13.244,6.63c2.031,1.007,4.378,1.169,6.519,0.461l14.37-4.796
			v116.164H179.2v-128C179.2,82.594,177.886,80.017,175.65,78.413z"/>
	</g>
</g>
<g>
</g>
<g>
</g>
<g>
</g>
<g>
</g>
<g>
</g>
<g>
</g>
<g>
</g>
<g>
</g>
<g>
</g>
<g>
</g>
<g>
</g>
<g>
</g>
<g>
</g>
<g>
</g>
<g>
</g>
</svg>
