<?xml version="1.0" encoding="iso-8859-1"?>
<!-- Generator: Adobe Illustrator 19.0.0, SVG Export Plug-In . SVG Version: 6.00 Build 0)  -->
<svg version="1.1" id="Capa_1" xmlns="http://www.w3.org/2000/svg" xmlns:xlink="http://www.w3.org/1999/xlink" x="0px" y="0px"
	 viewBox="0 0 512 512" style="enable-background:new 0 0 512 512;" xml:space="preserve">
<g>
	<g>
		<path d="M503.467,170.667H8.533C3.823,170.667,0,174.49,0,179.2v256c0,4.719,3.823,8.533,8.533,8.533h494.933
			c4.719,0,8.533-3.814,8.533-8.533v-256C512,174.49,508.186,170.667,503.467,170.667z M494.933,426.667H17.067V187.733h477.867
			V426.667z"/>
	</g>
</g>
<g>
	<g>
		<path d="M256,213.333c-51.755,0-93.867,42.112-93.867,93.867s42.112,93.867,93.867,93.867c51.755,0,93.867-42.112,93.867-93.867
			S307.755,213.333,256,213.333z M256,384c-42.342,0-76.8-34.449-76.8-76.8c0-42.351,34.458-76.8,76.8-76.8
			c42.351,0,76.8,34.449,76.8,76.8S298.351,384,256,384z"/>
	</g>
</g>
<g>
	<g>
		<path d="M76.8,179.2c0,37.641-30.626,68.267-68.267,68.267v17.067c47.053,0,85.333-38.281,85.333-85.333H76.8z"/>
	</g>
</g>
<g>
	<g>
		<rect x="59.733" y="298.667" width="59.733" height="17.067"/>
	</g>
</g>
<g>
	<g>
		<rect x="392.533" y="298.667" width="59.733" height="17.067"/>
	</g>
</g>
<g>
	<g>
		<path d="M503.467,136.533H8.533c-4.71,0-8.533,3.823-8.533,8.533V179.2h17.067v-25.6h477.867v25.6H512v-34.133
			C512,140.356,508.186,136.533,503.467,136.533z"/>
	</g>
</g>
<g>
	<g>
		<path d="M503.467,102.4H8.533c-4.71,0-8.533,3.823-8.533,8.533v34.133h17.067v-25.6h477.867v25.6H512v-34.133
			C512,106.223,508.186,102.4,503.467,102.4z"/>
	</g>
</g>
<g>
	<g>
		<path d="M503.467,68.267H8.533C3.823,68.267,0,72.09,0,76.8v34.133h17.067v-25.6h477.867v25.6H512V76.8
			C512,72.09,508.186,68.267,503.467,68.267z"/>
	</g>
</g>
<g>
	<g>
		<path d="M8.533,349.867v17.067c37.641,0,68.267,30.626,68.267,68.267h17.067C93.867,388.147,55.586,349.867,8.533,349.867z"/>
	</g>
</g>
<g>
	<g>
		<path d="M418.133,435.2H435.2c0-37.641,30.626-68.267,68.267-68.267v-17.067C456.414,349.867,418.133,388.147,418.133,435.2z"/>
	</g>
</g>
<g>
	<g>
		<path d="M435.2,179.2h-17.067c0,47.053,38.281,85.333,85.333,85.333v-17.067C465.826,247.467,435.2,216.841,435.2,179.2z"/>
	</g>
</g>
<g>
</g>
<g>
</g>
<g>
</g>
<g>
</g>
<g>
</g>
<g>
</g>
<g>
</g>
<g>
</g>
<g>
</g>
<g>
</g>
<g>
</g>
<g>
</g>
<g>
</g>
<g>
</g>
<g>
</g>
</svg>
