<?xml version="1.0" encoding="iso-8859-1"?>
<!-- Generator: Adobe Illustrator 19.0.0, SVG Export Plug-In . SVG Version: 6.00 Build 0)  -->
<svg version="1.1" id="Capa_1" xmlns="http://www.w3.org/2000/svg" xmlns:xlink="http://www.w3.org/1999/xlink" x="0px" y="0px"
	 viewBox="0 0 512 512" style="enable-background:new 0 0 512 512;" xml:space="preserve">
<g>
	<g>
		<path d="M503.467,196.267H409.6v17.067h85.333v34.133H17.067v-34.133H102.4v-17.067H8.533C3.823,196.267,0,200.09,0,204.8V256
			c0,4.71,3.823,8.533,8.533,8.533h494.933c4.719,0,8.533-3.823,8.533-8.533v-51.2C512,200.09,508.186,196.267,503.467,196.267z"/>
	</g>
</g>
<g>
	<g>
		<rect x="162.133" y="196.267" width="187.733" height="17.067"/>
	</g>
</g>
<g>
	<g>
		<path d="M484.48,250.615c-1.613-1.997-4.045-3.149-6.613-3.149H34.133c-2.569,0-4.992,1.152-6.613,3.149
			c-1.621,1.988-2.261,4.608-1.741,7.117l45.568,220.237C75.426,497.69,92.996,512,113.135,512h0.017h285.688
			c0.009,0,0.017,0,0.026,0c20.139,0,37.709-14.31,41.788-34.031l45.568-220.237C486.741,255.224,486.101,252.604,484.48,250.615z
			 M423.936,474.505c-2.449,11.844-12.988,20.429-25.071,20.429h-0.009c-0.009,0-0.009,0-0.009,0H113.143h-0.009
			c-12.092,0-22.63-8.585-25.079-20.42l-43.443-209.98h422.767L423.936,474.505z"/>
	</g>
</g>
<g>
	<g>
		<path d="M175.386,211.388L80.265,32.068c-3.268-5.939-8.158-10.76-14.148-13.961c-16.785-9.293-38.042-3.251-47.445,13.466
			c-0.282,0.512-0.521,1.05-0.691,1.613l-0.273,0.862c-5.436,10.436-5.291,22.724,0.358,32.93l95.078,179.234
			c3.14,5.837,7.842,10.667,13.679,13.995c5.385,3.012,11.23,4.437,16.998,4.437c12.228,0,24.081-6.4,30.37-17.673l1.126-1.852
			C181.18,234.513,181.18,221.858,175.386,211.388z M160.563,236.527l-1.152,1.903c-4.796,8.593-15.693,11.674-24.201,6.912
			c-2.978-1.698-5.41-4.19-7.014-7.168L33.067,58.846c-3.004-5.427-3.004-11.913,0-17.34c0.282-0.495,0.503-1.024,0.674-1.562
			l0.213-0.691c5.018-8.047,15.582-10.846,23.936-6.195c0.051,0.026,0.094,0.051,0.145,0.077c3.081,1.638,5.598,4.113,7.211,7.049
			l95.13,179.319C163.379,224.939,163.379,231.415,160.563,236.527z"/>
	</g>
</g>
<g>
	<g>
		<path d="M128,281.6c-14.114,0-25.6,11.486-25.6,25.6v128c0,14.114,11.486,25.6,25.6,25.6s25.6-11.486,25.6-25.6v-128
			C153.6,293.086,142.114,281.6,128,281.6z M136.533,435.2c0,4.71-3.831,8.533-8.533,8.533s-8.533-3.823-8.533-8.533v-128
			c0-4.71,3.831-8.533,8.533-8.533s8.533,3.823,8.533,8.533V435.2z"/>
	</g>
</g>
<g>
	<g>
		<path d="M213.333,281.6c-14.114,0-25.6,11.486-25.6,25.6v128c0,14.114,11.486,25.6,25.6,25.6c14.114,0,25.6-11.486,25.6-25.6v-128
			C238.933,293.086,227.447,281.6,213.333,281.6z M221.867,435.2c0,4.71-3.831,8.533-8.533,8.533c-4.702,0-8.533-3.823-8.533-8.533
			v-128c0-4.71,3.831-8.533,8.533-8.533c4.702,0,8.533,3.823,8.533,8.533V435.2z"/>
	</g>
</g>
<g>
	<g>
		<path d="M298.667,281.6c-14.114,0-25.6,11.486-25.6,25.6v128c0,14.114,11.486,25.6,25.6,25.6s25.6-11.486,25.6-25.6v-128
			C324.267,293.086,312.781,281.6,298.667,281.6z M307.2,435.2c0,4.71-3.823,8.533-8.533,8.533s-8.533-3.823-8.533-8.533v-128
			c0-4.71,3.823-8.533,8.533-8.533s8.533,3.823,8.533,8.533V435.2z"/>
	</g>
</g>
<g>
	<g>
		<path d="M384,281.6c-14.114,0-25.6,11.486-25.6,25.6v128c0,14.114,11.486,25.6,25.6,25.6s25.6-11.486,25.6-25.6v-128
			C409.6,293.086,398.114,281.6,384,281.6z M392.533,435.2c0,4.71-3.823,8.533-8.533,8.533s-8.533-3.823-8.533-8.533v-128
			c0-4.71,3.823-8.533,8.533-8.533s8.533,3.823,8.533,8.533V435.2z"/>
	</g>
</g>
<g>
	<g>
		<path d="M494.293,33.408l-0.964-1.843c-9.429-16.742-30.737-22.784-47.514-13.423c0,0,0,0-0.009,0
			c-5.837,3.26-10.607,8.107-13.798,14.037l-94.985,179.072c-5.871,10.598-5.871,23.262,0.188,34.202l0.802,1.297
			c0,0.009,0.009,0.009,0.009,0.017c6.374,11.409,18.253,17.852,30.515,17.852c5.777,0,11.648-1.434,17.05-4.446
			c5.76-3.294,10.47-8.115,13.636-13.995l94.976-179.081C500.062,56.499,500.062,43.844,494.293,33.408z M479.198,58.974
			l-95.036,179.157c-1.621,3.012-4.053,5.513-6.963,7.177c-8.516,4.745-19.243,1.775-24.201-6.741
			c-0.094-0.171-0.188-0.341-0.29-0.512l-0.751-1.203c-3.004-5.427-3.004-11.913,0.077-17.468L447.07,40.218
			c1.621-3.021,4.053-5.495,7.049-7.168c8.619-4.787,19.524-1.681,24.218,6.664l0.939,1.784
			C482.27,46.933,482.27,53.419,479.198,58.974z"/>
	</g>
</g>
<g>
	<g>
		<path d="M357.828,65.186c-1.271-3.285-4.437-5.453-7.962-5.453h-25.6v-51.2c0-4.71-3.814-8.533-8.533-8.533H196.267
			c-4.71,0-8.533,3.823-8.533,8.533v51.2h-25.6c-3.524,0-6.69,2.167-7.962,5.453c-1.271,3.294-0.393,7.023,2.219,9.395
			l93.867,85.333c1.63,1.476,3.686,2.219,5.743,2.219s4.113-0.742,5.743-2.219l93.867-85.333
			C358.221,72.209,359.1,68.48,357.828,65.186z M256,142.063L184.201,76.8h12.066c4.71,0,8.533-3.823,8.533-8.533v-51.2h102.4v51.2
			c0,4.71,3.814,8.533,8.533,8.533h12.058L256,142.063z"/>
	</g>
</g>
<g>
</g>
<g>
</g>
<g>
</g>
<g>
</g>
<g>
</g>
<g>
</g>
<g>
</g>
<g>
</g>
<g>
</g>
<g>
</g>
<g>
</g>
<g>
</g>
<g>
</g>
<g>
</g>
<g>
</g>
</svg>
