<?xml version="1.0" encoding="iso-8859-1"?>
<!-- Generator: Adobe Illustrator 19.0.0, SVG Export Plug-In . SVG Version: 6.00 Build 0)  -->
<svg version="1.1" id="Capa_1" xmlns="http://www.w3.org/2000/svg" xmlns:xlink="http://www.w3.org/1999/xlink" x="0px" y="0px"
	 viewBox="0 0 512 512" style="enable-background:new 0 0 512 512;" xml:space="preserve">
<g>
	<g>
		<path d="M416.589,88.977L356.855,3.644C355.26,1.357,352.649,0,349.867,0H162.133c-2.782,0-5.393,1.357-6.989,3.644L95.411,88.977
			c-2.381,3.388-1.971,7.996,0.956,10.923l153.6,153.6c1.664,1.664,3.849,2.5,6.033,2.5c2.185,0,4.369-0.836,6.033-2.5l153.6-153.6
			C418.552,96.973,418.961,92.365,416.589,88.977z M256,235.401L113.493,92.894l53.086-75.827h178.842l53.077,75.827L256,235.401z"
			/>
	</g>
</g>
<g>
	<g>
		<rect x="102.4" y="85.333" width="298.667" height="17.067"/>
	</g>
</g>
<g>
	<g>
		<path d="M307.78,90.769L256,223.923L204.22,90.769l-15.906,6.187l59.733,153.6c1.271,3.285,4.429,5.444,7.953,5.444
			c3.516,0,6.673-2.159,7.945-5.444l59.733-153.6L307.78,90.769z"/>
	</g>
</g>
<g>
	<g>
		<path d="M341.939,5.367l-28.271,70.682L262.989,3.652c-3.2-4.565-10.795-4.565-13.986,0l-50.679,72.397L170.052,5.367
			l-15.846,6.34l34.133,85.333c1.169,2.91,3.831,4.949,6.946,5.308c3.132,0.393,6.178-1.016,7.97-3.584L256,23.415l52.745,75.341
			c1.604,2.304,4.224,3.644,6.989,3.644c0.324,0,0.649-0.017,0.981-0.051c3.106-0.358,5.769-2.398,6.938-5.308l34.133-85.333
			L341.939,5.367z"/>
	</g>
</g>
<g>
	<g>
		<rect y="85.333" width="59.733" height="17.067"/>
	</g>
</g>
<g>
	<g>
		<rect x="59.729" y="-5.177" transform="matrix(0.5547 -0.8321 0.8321 0.5547 9.1048 68.1953)" width="17.067" height="61.536"/>
	</g>
</g>
<g>
	<g>
		
			<rect x="37.496" y="153.613" transform="matrix(0.8321 -0.5547 0.5547 0.8321 -78.4752 65.0944)" width="61.536" height="17.067"/>
	</g>
</g>
<g>
	<g>
		<rect x="452.267" y="85.333" width="59.733" height="17.067"/>
	</g>
</g>
<g>
	<g>
		
			<rect x="412.961" y="17.087" transform="matrix(0.8321 -0.5547 0.5547 0.8321 60.3063 250.4291)" width="61.536" height="17.067"/>
	</g>
</g>
<g>
	<g>
		
			<rect x="435.207" y="131.338" transform="matrix(0.5547 -0.8321 0.8321 0.5547 62.7252 441.4116)" width="17.067" height="61.536"/>
	</g>
</g>
<g>
	<g>
		<path d="M496.947,284.066c-11.546-7.723-26.453-7.723-38.093,0.068l-120.183,82.799H200.533c-7.057,0-12.8-5.743-12.8-12.8
			s5.743-12.8,12.8-12.8h63.992c0.017,0,0.034,0,0.043,0c29.261,0,54.024-20.924,58.914-49.843l1.365-8.533
			c0.393-2.466-0.316-4.983-1.937-6.886c-1.621-1.911-3.994-3.004-6.494-3.004H165.282c-9.421,0.009-18.697,3.191-26.138,8.969
			l-67.584,52.565l10.479,13.466l67.575-52.557c4.463-3.456,10.027-5.367,15.676-5.376h141.082
			c-4.036,19.866-21.385,34.133-41.813,34.133c-0.009,0-0.017,0-0.026,0h-64c-16.469,0-29.867,13.397-29.867,29.867
			c0,16.469,13.397,29.867,29.867,29.867h140.8c1.732,0,3.413-0.529,4.838-1.51l122.274-84.241
			c5.786-3.857,13.244-3.866,18.978-0.017c4.676,3.157,7.484,8.414,7.509,14.003v7.39c-0.026,5.478-2.705,10.65-7.142,13.798
			L354.987,427.17l-220.066,42.308l3.226,16.768l221.858-42.667c1.195-0.23,2.33-0.717,3.319-1.408l134.34-94.831
			c8.917-6.349,14.276-16.683,14.336-27.682v-7.467C511.94,300.911,506.325,290.398,496.947,284.066z"/>
	</g>
</g>
<g>
	<g>
		<path d="M152.704,482.586L67.371,311.919c-1.101-2.193-3.081-3.806-5.444-4.437c-2.364-0.623-4.89-0.205-6.929,1.152l-51.2,34.133
			c-2.372,1.587-3.797,4.25-3.797,7.1v153.6C0,508.186,3.823,512,8.533,512h102.4c1.323,0,2.637-0.307,3.823-0.896l34.133-17.067
			C153.105,491.93,154.812,486.801,152.704,482.586z M108.919,494.933H17.067V354.432l39.356-26.24l77.193,154.394L108.919,494.933z
			"/>
	</g>
</g>
<g>
	<g>
		<path d="M59.733,426.667c-14.114,0-25.6,11.486-25.6,25.6c0,14.114,11.486,25.6,25.6,25.6s25.6-11.486,25.6-25.6
			C85.333,438.153,73.847,426.667,59.733,426.667z M59.733,460.8c-4.702,0-8.533-3.823-8.533-8.533c0-4.71,3.831-8.533,8.533-8.533
			s8.533,3.823,8.533,8.533C68.267,456.977,64.435,460.8,59.733,460.8z"/>
	</g>
</g>
<g>
</g>
<g>
</g>
<g>
</g>
<g>
</g>
<g>
</g>
<g>
</g>
<g>
</g>
<g>
</g>
<g>
</g>
<g>
</g>
<g>
</g>
<g>
</g>
<g>
</g>
<g>
</g>
<g>
</g>
</svg>
